solid Piece3
facet normal -1.2080885822851525e-12 1.5116346896202088e-15 -1.0
  outer loop
    vertex 14.80504543944751 19.749559745682536 1.7888735225673487
    vertex 101.94788086729599 6.999638989029526 1.788873522462329
    vertex 14.80504543944752 6.999638989029391 1.7888735225673487
  endloop
endfacet
facet normal -1.2080885822851525e-12 1.5116346896202088e-15 -1.0
  outer loop
    vertex 101.94788086729599 6.999638989029526 1.788873522462329
    vertex 14.80504543944751 19.749559745682536 1.7888735225673487
    vertex 101.94788086729598 19.613559745682544 1.788873522462329
  endloop
endfacet
facet normal -1.2080885822851525e-12 1.5116346896202088e-15 -1.0
  outer loop
    vertex 101.94788086729598 19.613559745682544 1.788873522462329
    vertex 14.80504543944751 19.749559745682536 1.7888735225673487
    vertex 104.94934694507992 19.613559745682636 1.7888735224587307
  endloop
endfacet
facet normal -1.2080885822851525e-12 1.5116346896202088e-15 -1.0
  outer loop
    vertex 7.861830289430842 119.97826185051365 1.7888735225763046
    vertex 11.610151600843556 3.97861052124041 1.788873522571179
    vertex 7.861830289430899 3.97861052124041 1.788873522575673
  endloop
endfacet
facet normal -1.2080885822851525e-12 1.5116346896202088e-15 -1.0
  outer loop
    vertex 11.610151600843556 3.97861052124041 1.788873522571179
    vertex 7.861830289430842 119.97826185051365 1.7888735225763046
    vertex 11.804851787266879 6.999638989029391 1.7888735225709456
  endloop
endfacet
facet normal -1.2080885822851525e-12 1.5116346896202088e-15 -1.0
  outer loop
    vertex 11.610151600843556 3.97861052124041 1.788873522571179
    vertex 11.804851787266879 6.999638989029391 1.7888735225709456
    vertex 104.02155417810417 3.978610521240545 1.7888735224598429
  endloop
endfacet
facet normal -1.2080885822851525e-12 1.5116346896202088e-15 -1.0
  outer loop
    vertex 11.804851787266879 6.999638989029391 1.7888735225709456
    vertex 7.861830289430842 119.97826185051365 1.7888735225763046
    vertex 11.804851787266868 19.749559745682536 1.7888735225713066
  endloop
endfacet
facet normal -1.2080885822851525e-12 1.5116346896202088e-15 -1.0
  outer loop
    vertex 11.804851787266868 19.749559745682536 1.7888735225713066
    vertex 7.861830289430842 119.97826185051365 1.7888735225763046
    vertex 14.80504543944751 19.749559745682536 1.7888735225673487
  endloop
endfacet
facet normal -1.2080885822851525e-12 1.5116346896202088e-15 -1.0
  outer loop
    vertex 14.80504543944751 19.749559745682536 1.7888735225673487
    vertex 7.861830289430842 119.97826185051365 1.7888735225763046
    vertex 11.804851787266902 104.22578495220733 1.7888735225715773
  endloop
endfacet
facet normal -1.2080885822851525e-12 1.5116346896202088e-15 -1.0
  outer loop
    vertex 11.804851787266902 104.22578495220733 1.7888735225715773
    vertex 7.861830289430842 119.97826185051365 1.7888735225763046
    vertex 11.804851787266891 116.97570570885989 1.7888735225712165
  endloop
endfacet
facet normal -1.2080885822851525e-12 1.5116346896202088e-15 -1.0
  outer loop
    vertex 11.804851787266891 116.97570570885989 1.7888735225712165
    vertex 7.861830289430842 119.97826185051365 1.7888735225763046
    vertex 14.805045439447476 116.97570570885989 1.7888735225676196
  endloop
endfacet
facet normal -1.2080885822851525e-12 1.5116346896202088e-15 -1.0
  outer loop
    vertex 14.805045439447476 116.97570570885989 1.7888735225676196
    vertex 7.861830289430842 119.97826185051365 1.7888735225763046
    vertex 101.93628221475538 116.97570570885989 1.788873522462253
  endloop
endfacet
facet normal -1.2080885822851525e-12 1.5116346896202088e-15 -1.0
  outer loop
    vertex 101.93628221475538 116.97570570885989 1.788873522462253
    vertex 7.861830289430842 119.97826185051365 1.7888735225763046
    vertex 104.94934694507992 116.97570570885989 1.7888735224586405
  endloop
endfacet
facet normal -1.2080885822851525e-12 1.5116346896202088e-15 -1.0
  outer loop
    vertex 11.61015160084351 121.96898893120921 1.7888735225714496
    vertex 104.02037167217834 119.97826185051365 1.788873522459754
    vertex 11.6101516008435 119.97826185051365 1.7888735225718106
  endloop
endfacet
facet normal -1.2080885822851525e-12 1.5116346896202088e-15 -1.0
  outer loop
    vertex 104.02037167217834 119.97826185051365 1.788873522459754
    vertex 11.61015160084351 121.96898893120921 1.7888735225714496
    vertex 104.02037167217834 121.96898893120931 1.788873522459754
  endloop
endfacet
facet normal -1.2080885822851525e-12 1.5116346896202088e-15 -1.0
  outer loop
    vertex 107.83957733446246 3.978610521240455 1.7888735224552654
    vertex 104.94934694507995 6.999638989029526 1.7888735224587307
    vertex 107.83957733446239 119.97826185051365 1.7888735224553556
  endloop
endfacet
facet normal -1.2080885822851525e-12 1.5116346896202088e-15 -1.0
  outer loop
    vertex 104.94934694507995 6.999638989029526 1.7888735224587307
    vertex 107.83957733446246 3.978610521240455 1.7888735224552654
    vertex 104.02155417810417 3.978610521240545 1.7888735224598429
  endloop
endfacet
facet normal -1.2080885822851525e-12 1.5116346896202088e-15 -1.0
  outer loop
    vertex 104.94934694507995 6.999638989029526 1.7888735224587307
    vertex 104.02155417810417 3.978610521240545 1.7888735224598429
    vertex 14.80504543944752 6.999638989029391 1.7888735225673487
  endloop
endfacet
facet normal -1.2080885822851525e-12 1.5116346896202088e-15 -1.0
  outer loop
    vertex 14.80504543944752 6.999638989029391 1.7888735225673487
    vertex 104.02155417810417 3.978610521240545 1.7888735224598429
    vertex 11.804851787266879 6.999638989029391 1.7888735225709456
  endloop
endfacet
facet normal -1.2080885822851525e-12 1.5116346896202088e-15 -1.0
  outer loop
    vertex 104.94934694507995 6.999638989029526 1.7888735224587307
    vertex 14.80504543944752 6.999638989029391 1.7888735225673487
    vertex 101.94788086729599 6.999638989029526 1.788873522462329
  endloop
endfacet
facet normal -1.2080885822851525e-12 1.5116346896202088e-15 -1.0
  outer loop
    vertex 107.83957733446239 119.97826185051365 1.7888735224553556
    vertex 104.94934694507995 6.999638989029526 1.7888735224587307
    vertex 104.94934694507992 19.613559745682636 1.7888735224587307
  endloop
endfacet
facet normal -1.2080885822851525e-12 1.5116346896202088e-15 -1.0
  outer loop
    vertex 107.83957733446239 119.97826185051365 1.7888735224553556
    vertex 104.94934694507992 19.613559745682636 1.7888735224587307
    vertex 104.94934694507992 104.22578495220742 1.7888735224586405
  endloop
endfacet
facet normal -1.2080885822851525e-12 1.5116346896202088e-15 -1.0
  outer loop
    vertex 104.94934694507992 104.22578495220742 1.7888735224586405
    vertex 104.94934694507992 19.613559745682636 1.7888735224587307
    vertex 14.80504543944751 19.749559745682536 1.7888735225673487
  endloop
endfacet
facet normal -1.2080885822851525e-12 1.5116346896202088e-15 -1.0
  outer loop
    vertex 104.94934694507992 104.22578495220742 1.7888735224586405
    vertex 14.80504543944751 19.749559745682536 1.7888735225673487
    vertex 14.805045439447486 104.22578495220733 1.7888735225676196
  endloop
endfacet
facet normal -1.2080885822851525e-12 1.5116346896202088e-15 -1.0
  outer loop
    vertex 14.805045439447486 104.22578495220733 1.7888735225676196
    vertex 14.80504543944751 19.749559745682536 1.7888735225673487
    vertex 11.804851787266902 104.22578495220733 1.7888735225715773
  endloop
endfacet
facet normal -1.2080885822851525e-12 1.5116346896202088e-15 -1.0
  outer loop
    vertex 104.94934694507992 104.22578495220742 1.7888735224586405
    vertex 14.805045439447486 104.22578495220733 1.7888735225676196
    vertex 101.93628221475538 104.22578495220742 1.7888735224624333
  endloop
endfacet
facet normal -1.2080885822851525e-12 1.5116346896202088e-15 -1.0
  outer loop
    vertex 107.83957733446239 119.97826185051365 1.7888735224553556
    vertex 104.94934694507992 104.22578495220742 1.7888735224586405
    vertex 104.94934694507992 116.97570570885989 1.7888735224586405
  endloop
endfacet
facet normal -1.2080885822851525e-12 1.5116346896202088e-15 -1.0
  outer loop
    vertex 107.83957733446239 119.97826185051365 1.7888735224553556
    vertex 104.94934694507992 116.97570570885989 1.7888735224586405
    vertex 7.861830289430842 119.97826185051365 1.7888735225763046
  endloop
endfacet
facet normal -1.2080885822851525e-12 1.5116346896202088e-15 -1.0
  outer loop
    vertex 107.83957733446239 119.97826185051365 1.7888735224553556
    vertex 7.861830289430842 119.97826185051365 1.7888735225763046
    vertex 11.6101516008435 119.97826185051365 1.7888735225718106
  endloop
endfacet
facet normal -1.2080885822851525e-12 1.5116346896202088e-15 -1.0
  outer loop
    vertex 107.83957733446239 119.97826185051365 1.7888735224553556
    vertex 11.6101516008435 119.97826185051365 1.7888735225718106
    vertex 104.02037167217834 119.97826185051365 1.788873522459754
  endloop
endfacet
facet normal -1.2080885822851525e-12 1.5116346896202088e-15 -1.0
  outer loop
    vertex 14.805045439447476 116.97570570885989 1.7888735225676196
    vertex 101.93628221475538 104.22578495220742 1.7888735224624333
    vertex 14.805045439447486 104.22578495220733 1.7888735225676196
  endloop
endfacet
facet normal -1.2080885822851525e-12 1.5116346896202088e-15 -1.0
  outer loop
    vertex 101.93628221475538 104.22578495220742 1.7888735224624333
    vertex 14.805045439447476 116.97570570885989 1.7888735225676196
    vertex 101.93628221475538 116.97570570885989 1.788873522462253
  endloop
endfacet
facet normal -1.2080885822851525e-12 1.5116346896202088e-15 -1.0
  outer loop
    vertex 11.610151600843556 3.97861052124041 1.788873522571179
    vertex 104.02155417810417 1.9784414863665338 1.7888735224598429
    vertex 11.610151600843556 1.9784414863664437 1.78887352257154
  endloop
endfacet
facet normal -1.2080885822851525e-12 1.5116346896202088e-15 -1.0
  outer loop
    vertex 104.02155417810417 1.9784414863665338 1.7888735224598429
    vertex 11.610151600843556 3.97861052124041 1.788873522571179
    vertex 104.02155417810417 3.978610521240545 1.7888735224598429
  endloop
endfacet
facet normal 3.0064949962105835e-14 -1.0 -3.6214005358008396e-26
  outer loop
    vertex 104.94934694507992 19.613559745682636 1.7888735224587307
    vertex 101.94788086729838 19.613559745682544 3.7888735224624157
    vertex 101.94788086729598 19.613559745682544 1.788873522462329
  endloop
endfacet
facet normal 3.0064949962105835e-14 -1.0 -3.6214005358008396e-26
  outer loop
    vertex 101.94788086729838 19.613559745682544 3.7888735224624157
    vertex 104.94934694507992 19.613559745682636 1.7888735224587307
    vertex 104.94934694508234 19.613559745682636 3.788873522458817
  endloop
endfacet
facet normal 0.0 1.0 0.0
  outer loop
    vertex 11.804851787269293 6.999638989029391 3.7888735225710324
    vertex 14.80504543944752 6.999638989029391 1.7888735225673487
    vertex 11.804851787266879 6.999638989029391 1.7888735225709456
  endloop
endfacet
facet normal 0.0 1.0 0.0
  outer loop
    vertex 14.80504543944752 6.999638989029391 1.7888735225673487
    vertex 11.804851787269293 6.999638989029391 3.7888735225710324
    vertex 14.805045439449923 6.999638989029391 3.788873522567435
  endloop
endfacet
facet normal 1.0 1.3270512984529208e-15 -1.2017498107752544e-12
  outer loop
    vertex 11.804851787269293 6.999638989029391 3.7888735225710324
    vertex 11.804851787266868 19.749559745682536 1.7888735225713066
    vertex 11.804851787269271 19.749559745682536 3.7888735225713934
  endloop
endfacet
facet normal 1.0 1.3270512984529208e-15 -1.2017498107752544e-12
  outer loop
    vertex 11.804851787266868 19.749559745682536 1.7888735225713066
    vertex 11.804851787269293 6.999638989029391 3.7888735225710324
    vertex 11.804851787266879 6.999638989029391 1.7888735225709456
  endloop
endfacet
facet normal 0.0 -1.0 -0.0
  outer loop
    vertex 14.80504543944751 19.749559745682536 1.7888735225673487
    vertex 11.804851787269271 19.749559745682536 3.7888735225713934
    vertex 11.804851787266868 19.749559745682536 1.7888735225713066
  endloop
endfacet
facet normal 0.0 -1.0 -0.0
  outer loop
    vertex 11.804851787269271 19.749559745682536 3.7888735225713934
    vertex 14.80504543944751 19.749559745682536 1.7888735225673487
    vertex 14.805045439449911 19.749559745682536 3.788873522567435
  endloop
endfacet
facet normal -1.0 -1.7884789587317038e-15 1.204569777257802e-12
  outer loop
    vertex 104.94934694507992 19.613559745682636 1.7888735224587307
    vertex 104.94934694508237 6.999638989029526 3.788873522458817
    vertex 104.94934694508234 19.613559745682636 3.788873522458817
  endloop
endfacet
facet normal -1.0 -1.7884789587317038e-15 1.204569777257802e-12
  outer loop
    vertex 104.94934694508237 6.999638989029526 3.788873522458817
    vertex 104.94934694507992 19.613559745682636 1.7888735224587307
    vertex 104.94934694507995 6.999638989029526 1.7888735224587307
  endloop
endfacet
facet normal 1.0 8.847008656352712e-16 -1.1989298442927065e-12
  outer loop
    vertex 11.804851787266902 104.22578495220733 1.7888735225715773
    vertex 11.804851787269293 116.97570570885989 3.7888735225713033
    vertex 11.804851787269305 104.22578495220733 3.7888735225716643
  endloop
endfacet
facet normal 1.0 8.847008656352712e-16 -1.1989298442927065e-12
  outer loop
    vertex 11.804851787269293 116.97570570885989 3.7888735225713033
    vertex 11.804851787266902 104.22578495220733 1.7888735225715773
    vertex 11.804851787266891 116.97570570885989 1.7888735225712165
  endloop
endfacet
facet normal -1.0 -8.847008656352682e-16 1.1989298442927065e-12
  outer loop
    vertex 14.805045439447476 116.97570570885989 1.7888735225676196
    vertex 14.80504543944989 104.22578495220733 3.7888735225677057
    vertex 14.805045439449877 116.97570570885989 3.7888735225677057
  endloop
endfacet
facet normal -1.0 -8.847008656352682e-16 1.1989298442927065e-12
  outer loop
    vertex 14.80504543944989 104.22578495220733 3.7888735225677057
    vertex 14.805045439447476 116.97570570885989 1.7888735225676196
    vertex 14.805045439447486 104.22578495220733 1.7888735225676196
  endloop
endfacet
facet normal 0.0 1.0 0.0
  outer loop
    vertex 14.80504543944989 104.22578495220733 3.7888735225677057
    vertex 11.804851787266902 104.22578495220733 1.7888735225715773
    vertex 11.804851787269305 104.22578495220733 3.7888735225716643
  endloop
endfacet
facet normal 0.0 1.0 0.0
  outer loop
    vertex 11.804851787266902 104.22578495220733 1.7888735225715773
    vertex 14.80504543944989 104.22578495220733 3.7888735225677057
    vertex 14.805045439447486 104.22578495220733 1.7888735225676196
  endloop
endfacet
facet normal -1.0 -8.847008656352274e-16 1.1989298442927065e-12
  outer loop
    vertex 14.80504543944751 19.749559745682536 1.7888735225673487
    vertex 14.805045439449923 6.999638989029391 3.788873522567435
    vertex 14.805045439449911 19.749559745682536 3.788873522567435
  endloop
endfacet
facet normal -1.0 -8.847008656352274e-16 1.1989298442927065e-12
  outer loop
    vertex 14.805045439449923 6.999638989029391 3.788873522567435
    vertex 14.80504543944751 19.749559745682536 1.7888735225673487
    vertex 14.80504543944752 6.999638989029391 1.7888735225673487
  endloop
endfacet
facet normal 0.0 -1.0 -0.0
  outer loop
    vertex 14.805045439447476 116.97570570885989 1.7888735225676196
    vertex 11.804851787269293 116.97570570885989 3.7888735225713033
    vertex 11.804851787266891 116.97570570885989 1.7888735225712165
  endloop
endfacet
facet normal 0.0 -1.0 -0.0
  outer loop
    vertex 11.804851787269293 116.97570570885989 3.7888735225713033
    vertex 14.805045439447476 116.97570570885989 1.7888735225676196
    vertex 14.805045439449877 116.97570570885989 3.7888735225677057
  endloop
endfacet
facet normal 0.0 1.0 0.0
  outer loop
    vertex 104.94934694508237 6.999638989029526 3.788873522458817
    vertex 101.94788086729599 6.999638989029526 1.788873522462329
    vertex 101.94788086729838 6.999638989029526 3.7888735224624157
  endloop
endfacet
facet normal 0.0 1.0 0.0
  outer loop
    vertex 101.94788086729599 6.999638989029526 1.788873522462329
    vertex 104.94934694508237 6.999638989029526 3.788873522458817
    vertex 104.94934694507995 6.999638989029526 1.7888735224587307
  endloop
endfacet
facet normal 1.2080885822851525e-12 -1.5116346896202087e-15 1.0
  outer loop
    vertex 107.83957733446486 3.978610521240455 3.788873522455352
    vertex 104.94934694508237 6.999638989029526 3.788873522458817
    vertex 104.02155417810657 3.978610521240545 3.7888735224599293
  endloop
endfacet
facet normal 1.2080885822851525e-12 -1.5116346896202087e-15 1.0
  outer loop
    vertex 104.94934694508237 6.999638989029526 3.788873522458817
    vertex 107.83957733446486 3.978610521240455 3.788873522455352
    vertex 107.8395773344648 119.97826185051365 3.788873522455442
  endloop
endfacet
facet normal 1.2080885822851525e-12 -1.5116346896202087e-15 1.0
  outer loop
    vertex 104.02155417810657 3.978610521240545 3.7888735224599293
    vertex 104.94934694508237 6.999638989029526 3.788873522458817
    vertex 14.805045439449923 6.999638989029391 3.788873522567435
  endloop
endfacet
facet normal 1.2080885822851525e-12 -1.5116346896202087e-15 1.0
  outer loop
    vertex 104.94934694508237 6.999638989029526 3.788873522458817
    vertex 107.8395773344648 119.97826185051365 3.788873522455442
    vertex 104.94934694508234 19.613559745682636 3.788873522458817
  endloop
endfacet
facet normal 1.2080885822851525e-12 -1.5116346896202087e-15 1.0
  outer loop
    vertex 104.94934694508234 19.613559745682636 3.788873522458817
    vertex 107.8395773344648 119.97826185051365 3.788873522455442
    vertex 104.94934694508238 104.22578495220742 3.7888735224586365
  endloop
endfacet
facet normal 1.2080885822851525e-12 -1.5116346896202087e-15 1.0
  outer loop
    vertex 104.94934694508234 19.613559745682636 3.788873522458817
    vertex 104.94934694508238 104.22578495220742 3.7888735224586365
    vertex 14.805045439449911 19.749559745682536 3.788873522567435
  endloop
endfacet
facet normal 1.2080885822851525e-12 -1.5116346896202087e-15 1.0
  outer loop
    vertex 14.805045439449911 19.749559745682536 3.788873522567435
    vertex 104.94934694508238 104.22578495220742 3.7888735224586365
    vertex 11.804851787269271 19.749559745682536 3.7888735225713934
  endloop
endfacet
facet normal 1.2080885822851525e-12 -1.5116346896202087e-15 1.0
  outer loop
    vertex 11.804851787269271 19.749559745682536 3.7888735225713934
    vertex 104.94934694508238 104.22578495220742 3.7888735224586365
    vertex 14.80504543944989 104.22578495220733 3.7888735225677057
  endloop
endfacet
facet normal 1.2080885822851525e-12 -1.5116346896202087e-15 1.0
  outer loop
    vertex 104.94934694508238 104.22578495220742 3.7888735224586365
    vertex 107.8395773344648 119.97826185051365 3.788873522455442
    vertex 104.94934694508238 116.97570570885989 3.7888735224586365
  endloop
endfacet
facet normal 1.2080885822851525e-12 -1.5116346896202087e-15 1.0
  outer loop
    vertex 104.94934694508238 116.97570570885989 3.7888735224586365
    vertex 107.8395773344648 119.97826185051365 3.788873522455442
    vertex 101.93628221475785 116.97570570885989 3.7888735224622487
  endloop
endfacet
facet normal 1.2080885822851525e-12 -1.5116346896202087e-15 1.0
  outer loop
    vertex 101.93628221475785 116.97570570885989 3.7888735224622487
    vertex 107.8395773344648 119.97826185051365 3.788873522455442
    vertex 14.805045439449877 116.97570570885989 3.7888735225677057
  endloop
endfacet
facet normal 1.2080885822851525e-12 -1.5116346896202087e-15 1.0
  outer loop
    vertex 14.805045439449877 116.97570570885989 3.7888735225677057
    vertex 107.8395773344648 119.97826185051365 3.788873522455442
    vertex 11.804851787269293 116.97570570885989 3.7888735225713033
  endloop
endfacet
facet normal 1.2080885822851525e-12 -1.5116346896202087e-15 1.0
  outer loop
    vertex 104.02037167218074 121.96898893120931 3.7888735224598404
    vertex 11.610151600845901 119.97826185051365 3.7888735225718975
    vertex 104.02037167218074 119.97826185051365 3.7888735224598404
  endloop
endfacet
facet normal 1.2080885822851525e-12 -1.5116346896202087e-15 1.0
  outer loop
    vertex 11.610151600845901 119.97826185051365 3.7888735225718975
    vertex 104.02037167218074 121.96898893120931 3.7888735224598404
    vertex 11.610151600845914 121.96898893120921 3.7888735225715364
  endloop
endfacet
facet normal 1.2080885822851525e-12 -1.5116346896202087e-15 1.0
  outer loop
    vertex 104.02155417810657 1.9784414863665338 3.7888735224599293
    vertex 11.610151600845969 3.97861052124041 3.788873522571266
    vertex 11.610151600845969 1.9784414863664437 3.788873522571627
  endloop
endfacet
facet normal 1.2080885822851525e-12 -1.5116346896202087e-15 1.0
  outer loop
    vertex 11.610151600845969 3.97861052124041 3.788873522571266
    vertex 104.02155417810657 1.9784414863665338 3.7888735224599293
    vertex 104.02155417810657 3.978610521240545 3.7888735224599293
  endloop
endfacet
facet normal 1.2080885822851525e-12 -1.5116346896202087e-15 1.0
  outer loop
    vertex 11.610151600845969 3.97861052124041 3.788873522571266
    vertex 104.02155417810657 3.978610521240545 3.7888735224599293
    vertex 7.861830289433302 3.97861052124041 3.7888735225757597
  endloop
endfacet
facet normal 1.2080885822851525e-12 -1.5116346896202087e-15 1.0
  outer loop
    vertex 7.861830289433302 3.97861052124041 3.7888735225757597
    vertex 104.02155417810657 3.978610521240545 3.7888735224599293
    vertex 11.804851787269293 6.999638989029391 3.7888735225710324
  endloop
endfacet
facet normal 1.2080885822851525e-12 -1.5116346896202087e-15 1.0
  outer loop
    vertex 7.861830289433302 3.97861052124041 3.7888735225757597
    vertex 11.804851787269293 6.999638989029391 3.7888735225710324
    vertex 7.861830289433246 119.97826185051365 3.788873522576391
  endloop
endfacet
facet normal 1.2080885822851525e-12 -1.5116346896202087e-15 1.0
  outer loop
    vertex 11.804851787269293 6.999638989029391 3.7888735225710324
    vertex 104.02155417810657 3.978610521240545 3.7888735224599293
    vertex 14.805045439449923 6.999638989029391 3.788873522567435
  endloop
endfacet
facet normal 1.2080885822851525e-12 -1.5116346896202087e-15 1.0
  outer loop
    vertex 7.861830289433246 119.97826185051365 3.788873522576391
    vertex 11.804851787269293 6.999638989029391 3.7888735225710324
    vertex 11.804851787269271 19.749559745682536 3.7888735225713934
  endloop
endfacet
facet normal 1.2080885822851525e-12 -1.5116346896202087e-15 1.0
  outer loop
    vertex 7.861830289433246 119.97826185051365 3.788873522576391
    vertex 11.804851787269271 19.749559745682536 3.7888735225713934
    vertex 11.804851787269305 104.22578495220733 3.7888735225716643
  endloop
endfacet
facet normal 1.2080885822851525e-12 -1.5116346896202087e-15 1.0
  outer loop
    vertex 11.804851787269305 104.22578495220733 3.7888735225716643
    vertex 11.804851787269271 19.749559745682536 3.7888735225713934
    vertex 14.80504543944989 104.22578495220733 3.7888735225677057
  endloop
endfacet
facet normal 1.2080885822851525e-12 -1.5116346896202087e-15 1.0
  outer loop
    vertex 7.861830289433246 119.97826185051365 3.788873522576391
    vertex 11.804851787269305 104.22578495220733 3.7888735225716643
    vertex 11.804851787269293 116.97570570885989 3.7888735225713033
  endloop
endfacet
facet normal 1.2080885822851525e-12 -1.5116346896202087e-15 1.0
  outer loop
    vertex 7.861830289433246 119.97826185051365 3.788873522576391
    vertex 11.804851787269293 116.97570570885989 3.7888735225713033
    vertex 107.8395773344648 119.97826185051365 3.788873522455442
  endloop
endfacet
facet normal 1.2080885822851525e-12 -1.5116346896202087e-15 1.0
  outer loop
    vertex 7.861830289433246 119.97826185051365 3.788873522576391
    vertex 107.8395773344648 119.97826185051365 3.788873522455442
    vertex 104.02037167218074 119.97826185051365 3.7888735224598404
  endloop
endfacet
facet normal 1.2080885822851525e-12 -1.5116346896202087e-15 1.0
  outer loop
    vertex 7.861830289433246 119.97826185051365 3.788873522576391
    vertex 104.02037167218074 119.97826185051365 3.7888735224598404
    vertex 11.610151600845901 119.97826185051365 3.7888735225718975
  endloop
endfacet
facet normal 1.2080885822851525e-12 -1.5116346896202087e-15 1.0
  outer loop
    vertex 14.80504543944989 104.22578495220733 3.7888735225677057
    vertex 101.93628221475785 104.22578495220742 3.7888735224624295
    vertex 14.805045439449877 116.97570570885989 3.7888735225677057
  endloop
endfacet
facet normal 1.2080885822851525e-12 -1.5116346896202087e-15 1.0
  outer loop
    vertex 101.93628221475785 104.22578495220742 3.7888735224624295
    vertex 14.80504543944989 104.22578495220733 3.7888735225677057
    vertex 104.94934694508238 104.22578495220742 3.7888735224586365
  endloop
endfacet
facet normal 1.2080885822851525e-12 -1.5116346896202087e-15 1.0
  outer loop
    vertex 14.805045439449877 116.97570570885989 3.7888735225677057
    vertex 101.93628221475785 104.22578495220742 3.7888735224624295
    vertex 101.93628221475785 116.97570570885989 3.7888735224622487
  endloop
endfacet
facet normal 1.2080885822851525e-12 -1.5116346896202087e-15 1.0
  outer loop
    vertex 14.805045439449923 6.999638989029391 3.788873522567435
    vertex 101.94788086729838 6.999638989029526 3.7888735224624157
    vertex 14.805045439449911 19.749559745682536 3.788873522567435
  endloop
endfacet
facet normal 1.2080885822851525e-12 -1.5116346896202087e-15 1.0
  outer loop
    vertex 101.94788086729838 6.999638989029526 3.7888735224624157
    vertex 14.805045439449923 6.999638989029391 3.788873522567435
    vertex 104.94934694508237 6.999638989029526 3.788873522458817
  endloop
endfacet
facet normal 1.2080885822851525e-12 -1.5116346896202087e-15 1.0
  outer loop
    vertex 14.805045439449911 19.749559745682536 3.788873522567435
    vertex 101.94788086729838 6.999638989029526 3.7888735224624157
    vertex 101.94788086729838 19.613559745682544 3.7888735224624157
  endloop
endfacet
facet normal 1.2080885822851525e-12 -1.5116346896202087e-15 1.0
  outer loop
    vertex 14.805045439449911 19.749559745682536 3.788873522567435
    vertex 101.94788086729838 19.613559745682544 3.7888735224624157
    vertex 104.94934694508234 19.613559745682636 3.788873522458817
  endloop
endfacet
facet normal -1.0 -4.862025790996945e-16 1.1989298442927065e-12
  outer loop
    vertex 7.861830289430842 119.97826185051365 1.7888735225763046
    vertex 7.861830289433302 3.97861052124041 3.7888735225757597
    vertex 7.861830289433246 119.97826185051365 3.788873522576391
  endloop
endfacet
facet normal -1.0 -4.862025790996945e-16 1.1989298442927065e-12
  outer loop
    vertex 7.861830289433302 3.97861052124041 3.7888735225757597
    vertex 7.861830289430842 119.97826185051365 1.7888735225763046
    vertex 7.861830289430899 3.97861052124041 1.788873522575673
  endloop
endfacet
facet normal -1.0 5.6662040917483024e-15 1.1989298442927065e-12
  outer loop
    vertex 11.610151600845914 121.96898893120921 3.7888735225715364
    vertex 11.6101516008435 119.97826185051365 1.7888735225718106
    vertex 11.610151600845901 119.97826185051365 3.7888735225718975
  endloop
endfacet
facet normal -1.0 5.6662040917483024e-15 1.1989298442927065e-12
  outer loop
    vertex 11.6101516008435 119.97826185051365 1.7888735225718106
    vertex 11.610151600845914 121.96898893120921 3.7888735225715364
    vertex 11.61015160084351 121.96898893120921 1.7888735225714496
  endloop
endfacet
facet normal 0.0 1.0 0.0
  outer loop
    vertex 11.610151600845901 119.97826185051365 3.7888735225718975
    vertex 7.861830289430842 119.97826185051365 1.7888735225763046
    vertex 7.861830289433246 119.97826185051365 3.788873522576391
  endloop
endfacet
facet normal 0.0 1.0 0.0
  outer loop
    vertex 7.861830289430842 119.97826185051365 1.7888735225763046
    vertex 11.610151600845901 119.97826185051365 3.7888735225718975
    vertex 11.6101516008435 119.97826185051365 1.7888735225718106
  endloop
endfacet
facet normal 2.65312727379841e-27 1.0 2.3037127760971994e-15
  outer loop
    vertex 104.02037167218074 119.97826185051365 3.7888735224598404
    vertex 107.83957733446239 119.97826185051365 1.7888735224553556
    vertex 104.02037167217834 119.97826185051365 1.788873522459754
  endloop
endfacet
facet normal 2.65312727379841e-27 1.0 2.3037127760971994e-15
  outer loop
    vertex 107.83957733446239 119.97826185051365 1.7888735224553556
    vertex 104.02037167218074 119.97826185051365 3.7888735224598404
    vertex 107.8395773344648 119.97826185051365 3.788873522455442
  endloop
endfacet
facet normal -1.0 1.0180432887012314e-27 1.204569777257802e-12
  outer loop
    vertex 11.610151600845969 3.97861052124041 3.788873522571266
    vertex 11.610151600843556 1.9784414863664437 1.78887352257154
    vertex 11.610151600845969 1.9784414863664437 3.788873522571627
  endloop
endfacet
facet normal -1.0 1.0180432887012314e-27 1.204569777257802e-12
  outer loop
    vertex 11.610151600843556 1.9784414863664437 1.78887352257154
    vertex 11.610151600845969 3.97861052124041 3.788873522571266
    vertex 11.610151600843556 3.97861052124041 1.788873522571179
  endloop
endfacet
facet normal -2.3634986941148996e-14 -1.0 2.8371409026869923e-26
  outer loop
    vertex 107.83957733446246 3.978610521240455 1.7888735224552654
    vertex 104.02155417810657 3.978610521240545 3.7888735224599293
    vertex 104.02155417810417 3.978610521240545 1.7888735224598429
  endloop
endfacet
facet normal -2.3634986941148996e-14 -1.0 2.8371409026869923e-26
  outer loop
    vertex 104.02155417810657 3.978610521240545 3.7888735224599293
    vertex 107.83957733446246 3.978610521240455 1.7888735224552654
    vertex 107.83957733446486 3.978610521240455 3.788873522455352
  endloop
endfacet
facet normal 0.0 -1.0 -0.0
  outer loop
    vertex 11.610151600843556 3.97861052124041 1.788873522571179
    vertex 7.861830289433302 3.97861052124041 3.7888735225757597
    vertex 7.861830289430899 3.97861052124041 1.788873522575673
  endloop
endfacet
facet normal 0.0 -1.0 -0.0
  outer loop
    vertex 7.861830289433302 3.97861052124041 3.7888735225757597
    vertex 11.610151600843556 3.97861052124041 1.788873522571179
    vertex 11.610151600845969 3.97861052124041 3.788873522571266
  endloop
endfacet
facet normal 9.76491265415958e-16 -1.0 -1.1727229139258424e-27
  outer loop
    vertex 104.02155417810417 1.9784414863665338 1.7888735224598429
    vertex 11.610151600845969 1.9784414863664437 3.788873522571627
    vertex 11.610151600843556 1.9784414863664437 1.78887352257154
  endloop
endfacet
facet normal 9.76491265415958e-16 -1.0 -1.1727229139258424e-27
  outer loop
    vertex 11.610151600845969 1.9784414863664437 3.788873522571627
    vertex 104.02155417810417 1.9784414863665338 1.7888735224598429
    vertex 104.02155417810657 1.9784414863665338 3.7888735224599293
  endloop
endfacet
facet normal 1.0 0.0 -1.2017498107752544e-12
  outer loop
    vertex 104.02155417810417 1.9784414863665338 1.7888735224598429
    vertex 104.02155417810657 3.978610521240545 3.7888735224599293
    vertex 104.02155417810657 1.9784414863665338 3.7888735224599293
  endloop
endfacet
facet normal 1.0 0.0 -1.2017498107752544e-12
  outer loop
    vertex 104.02155417810657 3.978610521240545 3.7888735224599293
    vertex 104.02155417810417 1.9784414863665338 1.7888735224598429
    vertex 104.02155417810417 3.978610521240545 1.7888735224598429
  endloop
endfacet
facet normal 1.0 5.348228370096662e-16 -1.2017498107752544e-12
  outer loop
    vertex 107.83957733446486 3.978610521240455 3.788873522455352
    vertex 107.83957733446239 119.97826185051365 1.7888735224553556
    vertex 107.8395773344648 119.97826185051365 3.788873522455442
  endloop
endfacet
facet normal 1.0 5.348228370096662e-16 -1.2017498107752544e-12
  outer loop
    vertex 107.83957733446239 119.97826185051365 1.7888735224553556
    vertex 107.83957733446486 3.978610521240455 3.788873522455352
    vertex 107.83957733446246 3.978610521240455 1.7888735224552654
  endloop
endfacet
facet normal -4.882518804298592e-16 1.0 5.851458313527626e-28
  outer loop
    vertex 104.02037167218074 121.96898893120931 3.7888735224598404
    vertex 11.61015160084351 121.96898893120921 1.7888735225714496
    vertex 11.610151600845914 121.96898893120921 3.7888735225715364
  endloop
endfacet
facet normal -4.882518804298592e-16 1.0 5.851458313527626e-28
  outer loop
    vertex 11.61015160084351 121.96898893120921 1.7888735225714496
    vertex 104.02037167218074 121.96898893120931 3.7888735224598404
    vertex 104.02037167217834 121.96898893120931 1.788873522459754
  endloop
endfacet
facet normal 1.0 -5.666204091748175e-15 -1.2009698791004553e-12
  outer loop
    vertex 104.02037167217834 119.97826185051365 1.788873522459754
    vertex 104.02037167218074 121.96898893120931 3.7888735224598404
    vertex 104.02037167218074 119.97826185051365 3.7888735224598404
  endloop
endfacet
facet normal 1.0 -5.666204091748175e-15 -1.2009698791004553e-12
  outer loop
    vertex 104.02037167218074 121.96898893120931 3.7888735224598404
    vertex 104.02037167217834 119.97826185051365 1.788873522459754
    vertex 104.02037167217834 121.96898893120931 1.788873522459754
  endloop
endfacet
facet normal 1.0 1.3413592190487875e-15 -1.2017498107752544e-12
  outer loop
    vertex 101.94788086729599 6.999638989029526 1.788873522462329
    vertex 101.94788086729838 19.613559745682544 3.7888735224624157
    vertex 101.94788086729838 6.999638989029526 3.7888735224624157
  endloop
endfacet
facet normal 1.0 1.3413592190487875e-15 -1.2017498107752544e-12
  outer loop
    vertex 101.94788086729838 19.613559745682544 3.7888735224624157
    vertex 101.94788086729599 6.999638989029526 1.788873522462329
    vertex 101.94788086729598 19.613559745682544 1.788873522462329
  endloop
endfacet
facet normal -8.90949173052847e-27 1.0 -7.077606925082208e-15
  outer loop
    vertex 101.93628221475785 104.22578495220742 3.7888735224624295
    vertex 104.94934694507992 104.22578495220742 1.7888735224586405
    vertex 101.93628221475538 104.22578495220742 1.7888735224624333
  endloop
endfacet
facet normal -8.90949173052847e-27 1.0 -7.077606925082208e-15
  outer loop
    vertex 104.94934694507992 104.22578495220742 1.7888735224586405
    vertex 101.93628221475785 104.22578495220742 3.7888735224624295
    vertex 104.94934694508238 104.22578495220742 3.7888735224586365
  endloop
endfacet
facet normal 1.0 8.847008656348505e-16 -1.2288790606282655e-12
  outer loop
    vertex 101.93628221475538 104.22578495220742 1.7888735224624333
    vertex 101.93628221475785 116.97570570885989 3.7888735224622487
    vertex 101.93628221475785 104.22578495220742 3.7888735224624295
  endloop
endfacet
facet normal 1.0 8.847008656348505e-16 -1.2288790606282655e-12
  outer loop
    vertex 101.93628221475785 116.97570570885989 3.7888735224622487
    vertex 101.93628221475538 104.22578495220742 1.7888735224624333
    vertex 101.93628221475538 116.97570570885989 1.788873522462253
  endloop
endfacet
facet normal 8.485554168653794e-27 -1.0 7.077606925082208e-15
  outer loop
    vertex 104.94934694507992 116.97570570885989 1.7888735224586405
    vertex 101.93628221475785 116.97570570885989 3.7888735224622487
    vertex 101.93628221475538 116.97570570885989 1.788873522462253
  endloop
endfacet
facet normal 8.485554168653794e-27 -1.0 7.077606925082208e-15
  outer loop
    vertex 101.93628221475785 116.97570570885989 3.7888735224622487
    vertex 104.94934694507992 116.97570570885989 1.7888735224586405
    vertex 104.94934694508238 116.97570570885989 3.7888735224586365
  endloop
endfacet
facet normal -1.0 -0.0 1.2288790606282655e-12
  outer loop
    vertex 104.94934694507992 116.97570570885989 1.7888735224586405
    vertex 104.94934694508238 104.22578495220742 3.7888735224586365
    vertex 104.94934694508238 116.97570570885989 3.7888735224586365
  endloop
endfacet
facet normal -1.0 -0.0 1.2288790606282655e-12
  outer loop
    vertex 104.94934694508238 104.22578495220742 3.7888735224586365
    vertex 104.94934694507992 116.97570570885989 1.7888735224586405
    vertex 104.94934694507992 104.22578495220742 1.7888735224586405
  endloop
endfacet
endsolid Piece3
