solid Piece2
facet normal 0.0 1.0 1.617671274711796e-12
  outer loop
    vertex 128.00000000000003 99.99999999999677 2.000000000161786
    vertex 0.0 100.00000000000001 1.6176702477554982e-10
    vertex 0.0 99.99999999999677 2.000000000161786
  endloop
endfacet
facet normal 0.0 1.0 1.617671274711796e-12
  outer loop
    vertex 0.0 100.00000000000001 1.6176702477554982e-10
    vertex 128.00000000000003 99.99999999999677 2.000000000161786
    vertex 128.00000000000003 100.00000000000001 1.6176702477554982e-10
  endloop
endfacet
facet normal 0.0 1.617671274711796e-12 -1.0
  outer loop
    vertex 122.00000000000004 3.8000000000000136 6.147174436144098e-12
    vertex 117.4 3.9000000000000132 6.308970013080283e-12
    vertex 122.00000000000004 96.20000000000002 1.5561985033940573e-10
  endloop
endfacet
facet normal 0.0 1.617671274711796e-12 -1.0
  outer loop
    vertex 117.4 3.9000000000000132 6.308970013080283e-12
    vertex 122.00000000000004 3.8000000000000136 6.147174436144098e-12
    vertex 10.300000000000004 3.9000000000000132 6.308970013080283e-12
  endloop
endfacet
facet normal 0.0 1.617671274711796e-12 -1.0
  outer loop
    vertex 117.4 3.9000000000000132 6.308970013080283e-12
    vertex 10.300000000000004 3.9000000000000132 6.308970013080283e-12
    vertex 23.000000000000004 3.9000000000000132 6.308970013080283e-12
  endloop
endfacet
facet normal 0.0 1.617671274711796e-12 -1.0
  outer loop
    vertex 117.4 3.9000000000000132 6.308970013080283e-12
    vertex 23.000000000000004 3.9000000000000132 6.308970013080283e-12
    vertex 104.70000000000002 3.9000000000000132 6.308970013080283e-12
  endloop
endfacet
facet normal 0.0 1.617671274711796e-12 -1.0
  outer loop
    vertex 122.00000000000004 96.20000000000002 1.5561985033940573e-10
    vertex 117.4 3.9000000000000132 6.308970013080283e-12
    vertex 117.4 6.900000000000008 1.1161779833734897e-11
  endloop
endfacet
facet normal 0.0 1.617671274711796e-12 -1.0
  outer loop
    vertex 122.00000000000004 96.20000000000002 1.5561985033940573e-10
    vertex 117.4 6.900000000000008 1.1161779833734897e-11
    vertex 92.50000000000009 19.000000000000007 3.073587218072049e-11
  endloop
endfacet
facet normal 0.0 1.617671274711796e-12 -1.0
  outer loop
    vertex 92.50000000000009 19.000000000000007 3.073587218072049e-11
    vertex 117.4 6.900000000000008 1.1161779833734897e-11
    vertex 35.499999999999865 19.000000000000007 3.073587218072049e-11
  endloop
endfacet
facet normal 0.0 1.617671274711796e-12 -1.0
  outer loop
    vertex 92.50000000000009 19.000000000000007 3.073587218072049e-11
    vertex 35.499999999999865 19.000000000000007 3.073587218072049e-11
    vertex 42.4999999999999 19.000000000000007 3.073587218072049e-11
  endloop
endfacet
facet normal 0.0 1.617671274711796e-12 -1.0
  outer loop
    vertex 92.50000000000009 19.000000000000007 3.073587218072049e-11
    vertex 42.4999999999999 19.000000000000007 3.073587218072049e-11
    vertex 85.50000000000014 19.000000000000007 3.073587218072049e-11
  endloop
endfacet
facet normal 0.0 1.617671274711796e-12 -1.0
  outer loop
    vertex 122.00000000000004 96.20000000000002 1.5561985033940573e-10
    vertex 92.50000000000009 19.000000000000007 3.073587218072049e-11
    vertex 92.50000000000009 22.000000000000004 3.55886820013751e-11
  endloop
endfacet
facet normal 0.0 1.617671274711796e-12 -1.0
  outer loop
    vertex 122.00000000000004 96.20000000000002 1.5561985033940573e-10
    vertex 92.50000000000009 22.000000000000004 3.55886820013751e-11
    vertex 82.50000000000018 24.999999999999996 4.0441844317840037e-11
  endloop
endfacet
facet normal 0.0 1.617671274711796e-12 -1.0
  outer loop
    vertex 82.50000000000018 24.999999999999996 4.0441844317840037e-11
    vertex 92.50000000000009 22.000000000000004 3.55886820013751e-11
    vertex 45.50000000000003 24.999999999999996 4.0441844317840037e-11
  endloop
endfacet
facet normal 0.0 1.617671274711796e-12 -1.0
  outer loop
    vertex 82.50000000000018 24.999999999999996 4.0441844317840037e-11
    vertex 45.50000000000003 24.999999999999996 4.0441844317840037e-11
    vertex 50.500000000000064 24.999999999999996 4.0441844317840037e-11
  endloop
endfacet
facet normal 0.0 1.617671274711796e-12 -1.0
  outer loop
    vertex 82.50000000000018 24.999999999999996 4.0441844317840037e-11
    vertex 50.500000000000064 24.999999999999996 4.0441844317840037e-11
    vertex 53.50000000000011 24.999999999999996 4.0441844317840037e-11
  endloop
endfacet
facet normal 0.0 1.617671274711796e-12 -1.0
  outer loop
    vertex 82.50000000000018 24.999999999999996 4.0441844317840037e-11
    vertex 53.50000000000011 24.999999999999996 4.0441844317840037e-11
    vertex 58.50000000000005 24.999999999999996 4.0441844317840037e-11
  endloop
endfacet
facet normal 0.0 1.617671274711796e-12 -1.0
  outer loop
    vertex 82.50000000000018 24.999999999999996 4.0441844317840037e-11
    vertex 58.50000000000005 24.999999999999996 4.0441844317840037e-11
    vertex 61.50000000000018 24.999999999999996 4.0441844317840037e-11
  endloop
endfacet
facet normal 0.0 1.617671274711796e-12 -1.0
  outer loop
    vertex 82.50000000000018 24.999999999999996 4.0441844317840037e-11
    vertex 61.50000000000018 24.999999999999996 4.0441844317840037e-11
    vertex 66.50000000000021 24.999999999999996 4.0441844317840037e-11
  endloop
endfacet
facet normal 0.0 1.617671274711796e-12 -1.0
  outer loop
    vertex 82.50000000000018 24.999999999999996 4.0441844317840037e-11
    vertex 66.50000000000021 24.999999999999996 4.0441844317840037e-11
    vertex 69.50000000000026 24.999999999999996 4.0441844317840037e-11
  endloop
endfacet
facet normal 0.0 1.617671274711796e-12 -1.0
  outer loop
    vertex 82.50000000000018 24.999999999999996 4.0441844317840037e-11
    vertex 69.50000000000026 24.999999999999996 4.0441844317840037e-11
    vertex 74.5000000000002 24.999999999999996 4.0441844317840037e-11
  endloop
endfacet
facet normal 0.0 1.617671274711796e-12 -1.0
  outer loop
    vertex 82.50000000000018 24.999999999999996 4.0441844317840037e-11
    vertex 74.5000000000002 24.999999999999996 4.0441844317840037e-11
    vertex 77.50000000000033 24.999999999999996 4.0441844317840037e-11
  endloop
endfacet
facet normal 0.0 1.617671274711796e-12 -1.0
  outer loop
    vertex 122.00000000000004 96.20000000000002 1.5561985033940573e-10
    vertex 82.50000000000018 24.999999999999996 4.0441844317840037e-11
    vertex 92.50000000000009 78.00000000000003 1.261783427741747e-10
  endloop
endfacet
facet normal 0.0 1.617671274711796e-12 -1.0
  outer loop
    vertex 92.50000000000009 78.00000000000003 1.261783427741747e-10
    vertex 82.50000000000018 24.999999999999996 4.0441844317840037e-11
    vertex 82.50000000000018 75.00000000000001 1.2132518045770979e-10
  endloop
endfacet
facet normal 0.0 1.617671274711796e-12 -1.0
  outer loop
    vertex 92.50000000000009 78.00000000000003 1.261783427741747e-10
    vertex 82.50000000000018 75.00000000000001 1.2132518045770979e-10
    vertex 35.499999999999865 78.00000000000003 1.261783427741747e-10
  endloop
endfacet
facet normal 0.0 1.617671274711796e-12 -1.0
  outer loop
    vertex 92.50000000000009 78.00000000000003 1.261783427741747e-10
    vertex 35.499999999999865 78.00000000000003 1.261783427741747e-10
    vertex 42.4999999999999 78.00000000000003 1.261783427741747e-10
  endloop
endfacet
facet normal 0.0 1.617671274711796e-12 -1.0
  outer loop
    vertex 92.50000000000009 78.00000000000003 1.261783427741747e-10
    vertex 42.4999999999999 78.00000000000003 1.261783427741747e-10
    vertex 85.50000000000014 78.00000000000003 1.261783427741747e-10
  endloop
endfacet
facet normal 0.0 1.617671274711796e-12 -1.0
  outer loop
    vertex 122.00000000000004 96.20000000000002 1.5561985033940573e-10
    vertex 92.50000000000009 78.00000000000003 1.261783427741747e-10
    vertex 92.50000000000009 81.00000000000001 1.3103150509063966e-10
  endloop
endfacet
facet normal 0.0 1.617671274711796e-12 -1.0
  outer loop
    vertex 122.00000000000004 96.20000000000002 1.5561985033940573e-10
    vertex 92.50000000000009 81.00000000000001 1.3103150509063966e-10
    vertex 117.4 94.10000000000002 1.5222284821536646e-10
  endloop
endfacet
facet normal 0.0 1.617671274711796e-12 -1.0
  outer loop
    vertex 117.4 94.10000000000002 1.5222284821536646e-10
    vertex 92.50000000000009 81.00000000000001 1.3103150509063966e-10
    vertex 10.300000000000004 94.10000000000002 1.5222284821536646e-10
  endloop
endfacet
facet normal 0.0 1.617671274711796e-12 -1.0
  outer loop
    vertex 117.4 94.10000000000002 1.5222284821536646e-10
    vertex 10.300000000000004 94.10000000000002 1.5222284821536646e-10
    vertex 23.000000000000004 94.10000000000002 1.5222284821536646e-10
  endloop
endfacet
facet normal 0.0 1.617671274711796e-12 -1.0
  outer loop
    vertex 117.4 94.10000000000002 1.5222284821536646e-10
    vertex 23.000000000000004 94.10000000000002 1.5222284821536646e-10
    vertex 104.70000000000002 94.10000000000002 1.5222284821536646e-10
  endloop
endfacet
facet normal 0.0 1.617671274711796e-12 -1.0
  outer loop
    vertex 122.00000000000004 96.20000000000002 1.5561985033940573e-10
    vertex 117.4 94.10000000000002 1.5222284821536646e-10
    vertex 117.4 97.10000000000001 1.5707601053183138e-10
  endloop
endfacet
facet normal 0.0 1.617671274711796e-12 -1.0
  outer loop
    vertex 122.00000000000004 96.20000000000002 1.5561985033940573e-10
    vertex 117.4 97.10000000000001 1.5707601053183138e-10
    vertex 123.99999999999996 96.20000000000002 1.5561985033940573e-10
  endloop
endfacet
facet normal 0.0 1.617671274711796e-12 -1.0
  outer loop
    vertex 0.0 -1.978972541327128e-15 0.0
    vertex 3.9999999999999925 3.8000000000000136 6.147174436144098e-12
    vertex 128.00000000000003 -1.978972541327128e-15 0.0
  endloop
endfacet
facet normal 0.0 1.617671274711796e-12 -1.0
  outer loop
    vertex 3.9999999999999925 3.8000000000000136 6.147174436144098e-12
    vertex 0.0 -1.978972541327128e-15 0.0
    vertex 0.0 100.00000000000001 1.6176702477554982e-10
  endloop
endfacet
facet normal 0.0 1.617671274711796e-12 -1.0
  outer loop
    vertex 3.9999999999999925 3.8000000000000136 6.147174436144098e-12
    vertex 0.0 100.00000000000001 1.6176702477554982e-10
    vertex 3.9999999999999925 96.20000000000002 1.5561985033940573e-10
  endloop
endfacet
facet normal 0.0 1.617671274711796e-12 -1.0
  outer loop
    vertex 3.9999999999999925 96.20000000000002 1.5561985033940573e-10
    vertex 0.0 100.00000000000001 1.6176702477554982e-10
    vertex 6.000000000000079 96.20000000000002 1.5561985033940573e-10
  endloop
endfacet
facet normal 0.0 1.617671274711796e-12 -1.0
  outer loop
    vertex 6.000000000000079 96.20000000000002 1.5561985033940573e-10
    vertex 0.0 100.00000000000001 1.6176702477554982e-10
    vertex 10.300000000000004 97.10000000000001 1.5707601053183138e-10
  endloop
endfacet
facet normal 0.0 1.617671274711796e-12 -1.0
  outer loop
    vertex 10.300000000000004 97.10000000000001 1.5707601053183138e-10
    vertex 0.0 100.00000000000001 1.6176702477554982e-10
    vertex 23.000000000000004 97.10000000000001 1.5707601053183138e-10
  endloop
endfacet
facet normal 0.0 1.617671274711796e-12 -1.0
  outer loop
    vertex 23.000000000000004 97.10000000000001 1.5707601053183138e-10
    vertex 0.0 100.00000000000001 1.6176702477554982e-10
    vertex 104.70000000000002 97.10000000000001 1.5707601053183138e-10
  endloop
endfacet
facet normal 0.0 1.617671274711796e-12 -1.0
  outer loop
    vertex 104.70000000000002 97.10000000000001 1.5707601053183138e-10
    vertex 0.0 100.00000000000001 1.6176702477554982e-10
    vertex 117.4 97.10000000000001 1.5707601053183138e-10
  endloop
endfacet
facet normal 0.0 1.617671274711796e-12 -1.0
  outer loop
    vertex 128.00000000000003 -1.978972541327128e-15 0.0
    vertex 123.99999999999996 3.8000000000000136 6.147174436144098e-12
    vertex 128.00000000000003 100.00000000000001 1.6176702477554982e-10
  endloop
endfacet
facet normal 0.0 1.617671274711796e-12 -1.0
  outer loop
    vertex 123.99999999999996 3.8000000000000136 6.147174436144098e-12
    vertex 128.00000000000003 -1.978972541327128e-15 0.0
    vertex 3.9999999999999925 3.8000000000000136 6.147174436144098e-12
  endloop
endfacet
facet normal 0.0 1.617671274711796e-12 -1.0
  outer loop
    vertex 123.99999999999996 3.8000000000000136 6.147174436144098e-12
    vertex 3.9999999999999925 3.8000000000000136 6.147174436144098e-12
    vertex 6.000000000000079 3.8000000000000136 6.147174436144098e-12
  endloop
endfacet
facet normal 0.0 1.617671274711796e-12 -1.0
  outer loop
    vertex 123.99999999999996 3.8000000000000136 6.147174436144098e-12
    vertex 6.000000000000079 3.8000000000000136 6.147174436144098e-12
    vertex 122.00000000000004 3.8000000000000136 6.147174436144098e-12
  endloop
endfacet
facet normal 0.0 1.617671274711796e-12 -1.0
  outer loop
    vertex 128.00000000000003 100.00000000000001 1.6176702477554982e-10
    vertex 123.99999999999996 3.8000000000000136 6.147174436144098e-12
    vertex 123.99999999999996 96.20000000000002 1.5561985033940573e-10
  endloop
endfacet
facet normal 0.0 1.617671274711796e-12 -1.0
  outer loop
    vertex 128.00000000000003 100.00000000000001 1.6176702477554982e-10
    vertex 123.99999999999996 96.20000000000002 1.5561985033940573e-10
    vertex 117.4 97.10000000000001 1.5707601053183138e-10
  endloop
endfacet
facet normal 0.0 1.617671274711796e-12 -1.0
  outer loop
    vertex 128.00000000000003 100.00000000000001 1.6176702477554982e-10
    vertex 117.4 97.10000000000001 1.5707601053183138e-10
    vertex 0.0 100.00000000000001 1.6176702477554982e-10
  endloop
endfacet
facet normal 0.0 1.617671274711796e-12 -1.0
  outer loop
    vertex 23.000000000000004 97.10000000000001 1.5707601053183138e-10
    vertex 104.70000000000002 94.10000000000002 1.5222284821536646e-10
    vertex 23.000000000000004 94.10000000000002 1.5222284821536646e-10
  endloop
endfacet
facet normal 0.0 1.617671274711796e-12 -1.0
  outer loop
    vertex 104.70000000000002 94.10000000000002 1.5222284821536646e-10
    vertex 23.000000000000004 97.10000000000001 1.5707601053183138e-10
    vertex 104.70000000000002 97.10000000000001 1.5707601053183138e-10
  endloop
endfacet
facet normal 0.0 1.617671274711796e-12 -1.0
  outer loop
    vertex 6.000000000000079 3.8000000000000136 6.147174436144098e-12
    vertex 10.300000000000004 3.9000000000000132 6.308970013080283e-12
    vertex 122.00000000000004 3.8000000000000136 6.147174436144098e-12
  endloop
endfacet
facet normal 0.0 1.617671274711796e-12 -1.0
  outer loop
    vertex 10.300000000000004 3.9000000000000132 6.308970013080283e-12
    vertex 6.000000000000079 3.8000000000000136 6.147174436144098e-12
    vertex 6.000000000000079 96.20000000000002 1.5561985033940573e-10
  endloop
endfacet
facet normal 0.0 1.617671274711796e-12 -1.0
  outer loop
    vertex 10.300000000000004 3.9000000000000132 6.308970013080283e-12
    vertex 6.000000000000079 96.20000000000002 1.5561985033940573e-10
    vertex 10.300000000000004 6.900000000000008 1.1161779833734897e-11
  endloop
endfacet
facet normal 0.0 1.617671274711796e-12 -1.0
  outer loop
    vertex 10.300000000000004 6.900000000000008 1.1161779833734897e-11
    vertex 6.000000000000079 96.20000000000002 1.5561985033940573e-10
    vertex 23.000000000000004 6.900000000000008 1.1161779833734897e-11
  endloop
endfacet
facet normal 0.0 1.617671274711796e-12 -1.0
  outer loop
    vertex 23.000000000000004 6.900000000000008 1.1161779833734897e-11
    vertex 6.000000000000079 96.20000000000002 1.5561985033940573e-10
    vertex 35.499999999999865 19.000000000000007 3.073587218072049e-11
  endloop
endfacet
facet normal 0.0 1.617671274711796e-12 -1.0
  outer loop
    vertex 23.000000000000004 6.900000000000008 1.1161779833734897e-11
    vertex 35.499999999999865 19.000000000000007 3.073587218072049e-11
    vertex 104.70000000000002 6.900000000000008 1.1161779833734897e-11
  endloop
endfacet
facet normal 0.0 1.617671274711796e-12 -1.0
  outer loop
    vertex 104.70000000000002 6.900000000000008 1.1161779833734897e-11
    vertex 35.499999999999865 19.000000000000007 3.073587218072049e-11
    vertex 117.4 6.900000000000008 1.1161779833734897e-11
  endloop
endfacet
facet normal 0.0 1.617671274711796e-12 -1.0
  outer loop
    vertex 35.499999999999865 19.000000000000007 3.073587218072049e-11
    vertex 6.000000000000079 96.20000000000002 1.5561985033940573e-10
    vertex 35.499999999999865 22.000000000000004 3.55886820013751e-11
  endloop
endfacet
facet normal 0.0 1.617671274711796e-12 -1.0
  outer loop
    vertex 35.499999999999865 22.000000000000004 3.55886820013751e-11
    vertex 6.000000000000079 96.20000000000002 1.5561985033940573e-10
    vertex 42.4999999999999 22.000000000000004 3.55886820013751e-11
  endloop
endfacet
facet normal 0.0 1.617671274711796e-12 -1.0
  outer loop
    vertex 42.4999999999999 22.000000000000004 3.55886820013751e-11
    vertex 6.000000000000079 96.20000000000002 1.5561985033940573e-10
    vertex 45.50000000000003 24.999999999999996 4.0441844317840037e-11
  endloop
endfacet
facet normal 0.0 1.617671274711796e-12 -1.0
  outer loop
    vertex 42.4999999999999 22.000000000000004 3.55886820013751e-11
    vertex 45.50000000000003 24.999999999999996 4.0441844317840037e-11
    vertex 85.50000000000014 22.000000000000004 3.55886820013751e-11
  endloop
endfacet
facet normal 0.0 1.617671274711796e-12 -1.0
  outer loop
    vertex 85.50000000000014 22.000000000000004 3.55886820013751e-11
    vertex 45.50000000000003 24.999999999999996 4.0441844317840037e-11
    vertex 92.50000000000009 22.000000000000004 3.55886820013751e-11
  endloop
endfacet
facet normal 0.0 1.617671274711796e-12 -1.0
  outer loop
    vertex 45.50000000000003 24.999999999999996 4.0441844317840037e-11
    vertex 6.000000000000079 96.20000000000002 1.5561985033940573e-10
    vertex 35.499999999999865 78.00000000000003 1.261783427741747e-10
  endloop
endfacet
facet normal 0.0 1.617671274711796e-12 -1.0
  outer loop
    vertex 45.50000000000003 24.999999999999996 4.0441844317840037e-11
    vertex 35.499999999999865 78.00000000000003 1.261783427741747e-10
    vertex 45.50000000000003 75.00000000000001 1.2132518045770979e-10
  endloop
endfacet
facet normal 0.0 1.617671274711796e-12 -1.0
  outer loop
    vertex 45.50000000000003 75.00000000000001 1.2132518045770979e-10
    vertex 35.499999999999865 78.00000000000003 1.261783427741747e-10
    vertex 50.500000000000064 75.00000000000001 1.2132518045770979e-10
  endloop
endfacet
facet normal 0.0 1.617671274711796e-12 -1.0
  outer loop
    vertex 50.500000000000064 75.00000000000001 1.2132518045770979e-10
    vertex 35.499999999999865 78.00000000000003 1.261783427741747e-10
    vertex 53.50000000000011 75.00000000000001 1.2132518045770979e-10
  endloop
endfacet
facet normal 0.0 1.617671274711796e-12 -1.0
  outer loop
    vertex 53.50000000000011 75.00000000000001 1.2132518045770979e-10
    vertex 35.499999999999865 78.00000000000003 1.261783427741747e-10
    vertex 58.50000000000005 75.00000000000001 1.2132518045770979e-10
  endloop
endfacet
facet normal 0.0 1.617671274711796e-12 -1.0
  outer loop
    vertex 58.50000000000005 75.00000000000001 1.2132518045770979e-10
    vertex 35.499999999999865 78.00000000000003 1.261783427741747e-10
    vertex 61.50000000000018 75.00000000000001 1.2132518045770979e-10
  endloop
endfacet
facet normal 0.0 1.617671274711796e-12 -1.0
  outer loop
    vertex 61.50000000000018 75.00000000000001 1.2132518045770979e-10
    vertex 35.499999999999865 78.00000000000003 1.261783427741747e-10
    vertex 66.50000000000021 75.00000000000001 1.2132518045770979e-10
  endloop
endfacet
facet normal 0.0 1.617671274711796e-12 -1.0
  outer loop
    vertex 66.50000000000021 75.00000000000001 1.2132518045770979e-10
    vertex 35.499999999999865 78.00000000000003 1.261783427741747e-10
    vertex 69.50000000000026 75.00000000000001 1.2132518045770979e-10
  endloop
endfacet
facet normal 0.0 1.617671274711796e-12 -1.0
  outer loop
    vertex 69.50000000000026 75.00000000000001 1.2132518045770979e-10
    vertex 35.499999999999865 78.00000000000003 1.261783427741747e-10
    vertex 74.5000000000002 75.00000000000001 1.2132518045770979e-10
  endloop
endfacet
facet normal 0.0 1.617671274711796e-12 -1.0
  outer loop
    vertex 74.5000000000002 75.00000000000001 1.2132518045770979e-10
    vertex 35.499999999999865 78.00000000000003 1.261783427741747e-10
    vertex 77.50000000000033 75.00000000000001 1.2132518045770979e-10
  endloop
endfacet
facet normal 0.0 1.617671274711796e-12 -1.0
  outer loop
    vertex 77.50000000000033 75.00000000000001 1.2132518045770979e-10
    vertex 35.499999999999865 78.00000000000003 1.261783427741747e-10
    vertex 82.50000000000018 75.00000000000001 1.2132518045770979e-10
  endloop
endfacet
facet normal 0.0 1.617671274711796e-12 -1.0
  outer loop
    vertex 35.499999999999865 78.00000000000003 1.261783427741747e-10
    vertex 6.000000000000079 96.20000000000002 1.5561985033940573e-10
    vertex 35.499999999999865 81.00000000000001 1.3103150509063966e-10
  endloop
endfacet
facet normal 0.0 1.617671274711796e-12 -1.0
  outer loop
    vertex 35.499999999999865 81.00000000000001 1.3103150509063966e-10
    vertex 6.000000000000079 96.20000000000002 1.5561985033940573e-10
    vertex 10.300000000000004 94.10000000000002 1.5222284821536646e-10
  endloop
endfacet
facet normal 0.0 1.617671274711796e-12 -1.0
  outer loop
    vertex 35.499999999999865 81.00000000000001 1.3103150509063966e-10
    vertex 10.300000000000004 94.10000000000002 1.5222284821536646e-10
    vertex 42.4999999999999 81.00000000000001 1.3103150509063966e-10
  endloop
endfacet
facet normal 0.0 1.617671274711796e-12 -1.0
  outer loop
    vertex 42.4999999999999 81.00000000000001 1.3103150509063966e-10
    vertex 10.300000000000004 94.10000000000002 1.5222284821536646e-10
    vertex 85.50000000000014 81.00000000000001 1.3103150509063966e-10
  endloop
endfacet
facet normal 0.0 1.617671274711796e-12 -1.0
  outer loop
    vertex 85.50000000000014 81.00000000000001 1.3103150509063966e-10
    vertex 10.300000000000004 94.10000000000002 1.5222284821536646e-10
    vertex 92.50000000000009 81.00000000000001 1.3103150509063966e-10
  endloop
endfacet
facet normal 0.0 1.617671274711796e-12 -1.0
  outer loop
    vertex 10.300000000000004 94.10000000000002 1.5222284821536646e-10
    vertex 6.000000000000079 96.20000000000002 1.5561985033940573e-10
    vertex 10.300000000000004 97.10000000000001 1.5707601053183138e-10
  endloop
endfacet
facet normal 0.0 1.617671274711796e-12 -1.0
  outer loop
    vertex 42.4999999999999 81.00000000000001 1.3103150509063966e-10
    vertex 85.50000000000014 78.00000000000003 1.261783427741747e-10
    vertex 42.4999999999999 78.00000000000003 1.261783427741747e-10
  endloop
endfacet
facet normal 0.0 1.617671274711796e-12 -1.0
  outer loop
    vertex 85.50000000000014 78.00000000000003 1.261783427741747e-10
    vertex 42.4999999999999 81.00000000000001 1.3103150509063966e-10
    vertex 85.50000000000014 81.00000000000001 1.3103150509063966e-10
  endloop
endfacet
facet normal 0.0 1.617671274711796e-12 -1.0
  outer loop
    vertex 74.5000000000002 75.00000000000001 1.2132518045770979e-10
    vertex 77.50000000000033 24.999999999999996 4.0441844317840037e-11
    vertex 74.5000000000002 24.999999999999996 4.0441844317840037e-11
  endloop
endfacet
facet normal 0.0 1.617671274711796e-12 -1.0
  outer loop
    vertex 77.50000000000033 24.999999999999996 4.0441844317840037e-11
    vertex 74.5000000000002 75.00000000000001 1.2132518045770979e-10
    vertex 77.50000000000033 75.00000000000001 1.2132518045770979e-10
  endloop
endfacet
facet normal 0.0 1.617671274711796e-12 -1.0
  outer loop
    vertex 66.50000000000021 75.00000000000001 1.2132518045770979e-10
    vertex 69.50000000000026 24.999999999999996 4.0441844317840037e-11
    vertex 66.50000000000021 24.999999999999996 4.0441844317840037e-11
  endloop
endfacet
facet normal 0.0 1.617671274711796e-12 -1.0
  outer loop
    vertex 69.50000000000026 24.999999999999996 4.0441844317840037e-11
    vertex 66.50000000000021 75.00000000000001 1.2132518045770979e-10
    vertex 69.50000000000026 75.00000000000001 1.2132518045770979e-10
  endloop
endfacet
facet normal 0.0 1.617671274711796e-12 -1.0
  outer loop
    vertex 58.50000000000005 75.00000000000001 1.2132518045770979e-10
    vertex 61.50000000000018 24.999999999999996 4.0441844317840037e-11
    vertex 58.50000000000005 24.999999999999996 4.0441844317840037e-11
  endloop
endfacet
facet normal 0.0 1.617671274711796e-12 -1.0
  outer loop
    vertex 61.50000000000018 24.999999999999996 4.0441844317840037e-11
    vertex 58.50000000000005 75.00000000000001 1.2132518045770979e-10
    vertex 61.50000000000018 75.00000000000001 1.2132518045770979e-10
  endloop
endfacet
facet normal 0.0 1.617671274711796e-12 -1.0
  outer loop
    vertex 50.500000000000064 75.00000000000001 1.2132518045770979e-10
    vertex 53.50000000000011 24.999999999999996 4.0441844317840037e-11
    vertex 50.500000000000064 24.999999999999996 4.0441844317840037e-11
  endloop
endfacet
facet normal 0.0 1.617671274711796e-12 -1.0
  outer loop
    vertex 53.50000000000011 24.999999999999996 4.0441844317840037e-11
    vertex 50.500000000000064 75.00000000000001 1.2132518045770979e-10
    vertex 53.50000000000011 75.00000000000001 1.2132518045770979e-10
  endloop
endfacet
facet normal 0.0 1.617671274711796e-12 -1.0
  outer loop
    vertex 42.4999999999999 22.000000000000004 3.55886820013751e-11
    vertex 85.50000000000014 19.000000000000007 3.073587218072049e-11
    vertex 42.4999999999999 19.000000000000007 3.073587218072049e-11
  endloop
endfacet
facet normal 0.0 1.617671274711796e-12 -1.0
  outer loop
    vertex 85.50000000000014 19.000000000000007 3.073587218072049e-11
    vertex 42.4999999999999 22.000000000000004 3.55886820013751e-11
    vertex 85.50000000000014 22.000000000000004 3.55886820013751e-11
  endloop
endfacet
facet normal 0.0 1.617671274711796e-12 -1.0
  outer loop
    vertex 23.000000000000004 6.900000000000008 1.1161779833734897e-11
    vertex 104.70000000000002 3.9000000000000132 6.308970013080283e-12
    vertex 23.000000000000004 3.9000000000000132 6.308970013080283e-12
  endloop
endfacet
facet normal 0.0 1.617671274711796e-12 -1.0
  outer loop
    vertex 104.70000000000002 3.9000000000000132 6.308970013080283e-12
    vertex 23.000000000000004 6.900000000000008 1.1161779833734897e-11
    vertex 104.70000000000002 6.900000000000008 1.1161779833734897e-11
  endloop
endfacet
facet normal 1.0 0.0 0.0
  outer loop
    vertex 128.00000000000003 -1.978972541327128e-15 0.0
    vertex 128.00000000000003 99.99999999999677 2.000000000161786
    vertex 128.00000000000003 -3.2373215219649498e-12 2.000000000000019
  endloop
endfacet
facet normal 1.0 0.0 0.0
  outer loop
    vertex 128.00000000000003 99.99999999999677 2.000000000161786
    vertex 128.00000000000003 -1.978972541327128e-15 0.0
    vertex 128.00000000000003 100.00000000000001 1.6176702477554982e-10
  endloop
endfacet
facet normal -1.0 0.0 0.0
  outer loop
    vertex 0.0 100.00000000000001 1.6176702477554982e-10
    vertex 0.0 -3.2373215219649498e-12 2.000000000000019
    vertex 0.0 99.99999999999677 2.000000000161786
  endloop
endfacet
facet normal -1.0 0.0 0.0
  outer loop
    vertex 0.0 -3.2373215219649498e-12 2.000000000000019
    vertex 0.0 100.00000000000001 1.6176702477554982e-10
    vertex 0.0 -1.978972541327128e-15 0.0
  endloop
endfacet
facet normal 0.0 -1.0 -1.617671274711796e-12
  outer loop
    vertex 128.00000000000003 -1.978972541327128e-15 0.0
    vertex 0.0 -3.2373215219649498e-12 2.000000000000019
    vertex 0.0 -1.978972541327128e-15 0.0
  endloop
endfacet
facet normal 0.0 -1.0 -1.617671274711796e-12
  outer loop
    vertex 0.0 -3.2373215219649498e-12 2.000000000000019
    vertex 128.00000000000003 -1.978972541327128e-15 0.0
    vertex 128.00000000000003 -3.2373215219649498e-12 2.000000000000019
  endloop
endfacet
facet normal 0.0 1.0 1.617671274711796e-12
  outer loop
    vertex 92.50000000000009 77.99999999999679 2.0000000001261973
    vertex 85.50000000000014 78.00000000000003 1.261783427741747e-10
    vertex 85.50000000000014 77.99999999999679 2.0000000001261973
  endloop
endfacet
facet normal 0.0 1.0 1.617671274711796e-12
  outer loop
    vertex 85.50000000000014 78.00000000000003 1.261783427741747e-10
    vertex 92.50000000000009 77.99999999999679 2.0000000001261973
    vertex 92.50000000000009 78.00000000000003 1.261783427741747e-10
  endloop
endfacet
facet normal 0.0 -1.0 -1.617671274711796e-12
  outer loop
    vertex 92.50000000000009 81.00000000000001 1.3103150509063966e-10
    vertex 85.50000000000014 80.99999999999677 2.0000000001310503
    vertex 85.50000000000014 81.00000000000001 1.3103150509063966e-10
  endloop
endfacet
facet normal 0.0 -1.0 -1.617671274711796e-12
  outer loop
    vertex 85.50000000000014 80.99999999999677 2.0000000001310503
    vertex 92.50000000000009 81.00000000000001 1.3103150509063966e-10
    vertex 92.50000000000009 80.99999999999677 2.0000000001310503
  endloop
endfacet
facet normal 1.0 0.0 0.0
  outer loop
    vertex 35.499999999999865 78.00000000000003 1.261783427741747e-10
    vertex 35.499999999999865 80.99999999999677 2.0000000001310503
    vertex 35.499999999999865 77.99999999999679 2.0000000001261973
  endloop
endfacet
facet normal 1.0 0.0 0.0
  outer loop
    vertex 35.499999999999865 80.99999999999677 2.0000000001310503
    vertex 35.499999999999865 78.00000000000003 1.261783427741747e-10
    vertex 35.499999999999865 81.00000000000001 1.3103150509063966e-10
  endloop
endfacet
facet normal -1.0 0.0 0.0
  outer loop
    vertex 42.4999999999999 81.00000000000001 1.3103150509063966e-10
    vertex 42.4999999999999 77.99999999999679 2.0000000001261973
    vertex 42.4999999999999 80.99999999999677 2.0000000001310503
  endloop
endfacet
facet normal -1.0 0.0 0.0
  outer loop
    vertex 42.4999999999999 77.99999999999679 2.0000000001261973
    vertex 42.4999999999999 81.00000000000001 1.3103150509063966e-10
    vertex 42.4999999999999 78.00000000000003 1.261783427741747e-10
  endloop
endfacet
facet normal 0.0 1.0 1.617671274711796e-12
  outer loop
    vertex 42.4999999999999 77.99999999999679 2.0000000001261973
    vertex 35.499999999999865 78.00000000000003 1.261783427741747e-10
    vertex 35.499999999999865 77.99999999999679 2.0000000001261973
  endloop
endfacet
facet normal 0.0 1.0 1.617671274711796e-12
  outer loop
    vertex 35.499999999999865 78.00000000000003 1.261783427741747e-10
    vertex 42.4999999999999 77.99999999999679 2.0000000001261973
    vertex 42.4999999999999 78.00000000000003 1.261783427741747e-10
  endloop
endfacet
facet normal 0.0 -1.0 -1.617671274711796e-12
  outer loop
    vertex 42.4999999999999 81.00000000000001 1.3103150509063966e-10
    vertex 35.499999999999865 80.99999999999677 2.0000000001310503
    vertex 35.499999999999865 81.00000000000001 1.3103150509063966e-10
  endloop
endfacet
facet normal 0.0 -1.0 -1.617671274711796e-12
  outer loop
    vertex 35.499999999999865 80.99999999999677 2.0000000001310503
    vertex 42.4999999999999 81.00000000000001 1.3103150509063966e-10
    vertex 42.4999999999999 80.99999999999677 2.0000000001310503
  endloop
endfacet
facet normal -1.0 0.0 0.0
  outer loop
    vertex 92.50000000000009 81.00000000000001 1.3103150509063966e-10
    vertex 92.50000000000009 77.99999999999679 2.0000000001261973
    vertex 92.50000000000009 80.99999999999677 2.0000000001310503
  endloop
endfacet
facet normal -1.0 0.0 0.0
  outer loop
    vertex 92.50000000000009 77.99999999999679 2.0000000001261973
    vertex 92.50000000000009 81.00000000000001 1.3103150509063966e-10
    vertex 92.50000000000009 78.00000000000003 1.261783427741747e-10
  endloop
endfacet
facet normal 1.0 0.0 0.0
  outer loop
    vertex 85.50000000000014 78.00000000000003 1.261783427741747e-10
    vertex 85.50000000000014 80.99999999999677 2.0000000001310503
    vertex 85.50000000000014 77.99999999999679 2.0000000001261973
  endloop
endfacet
facet normal 1.0 0.0 0.0
  outer loop
    vertex 85.50000000000014 80.99999999999677 2.0000000001310503
    vertex 85.50000000000014 78.00000000000003 1.261783427741747e-10
    vertex 85.50000000000014 81.00000000000001 1.3103150509063966e-10
  endloop
endfacet
facet normal 0.0 1.0 1.617671274711796e-12
  outer loop
    vertex 23.000000000000004 94.09999999999678 2.0000000001522418
    vertex 10.300000000000004 94.10000000000002 1.5222284821536646e-10
    vertex 10.300000000000004 94.09999999999678 2.0000000001522418
  endloop
endfacet
facet normal 0.0 1.0 1.617671274711796e-12
  outer loop
    vertex 10.300000000000004 94.10000000000002 1.5222284821536646e-10
    vertex 23.000000000000004 94.09999999999678 2.0000000001522418
    vertex 23.000000000000004 94.10000000000002 1.5222284821536646e-10
  endloop
endfacet
facet normal 1.0 0.0 0.0
  outer loop
    vertex 10.300000000000004 94.10000000000002 1.5222284821536646e-10
    vertex 10.300000000000004 97.09999999999678 2.000000000157095
    vertex 10.300000000000004 94.09999999999678 2.0000000001522418
  endloop
endfacet
facet normal 1.0 0.0 0.0
  outer loop
    vertex 10.300000000000004 97.09999999999678 2.000000000157095
    vertex 10.300000000000004 94.10000000000002 1.5222284821536646e-10
    vertex 10.300000000000004 97.10000000000001 1.5707601053183138e-10
  endloop
endfacet
facet normal 0.0 -1.0 -1.617671274711796e-12
  outer loop
    vertex 23.000000000000004 97.10000000000001 1.5707601053183138e-10
    vertex 10.300000000000004 97.09999999999678 2.000000000157095
    vertex 10.300000000000004 97.10000000000001 1.5707601053183138e-10
  endloop
endfacet
facet normal 0.0 -1.0 -1.617671274711796e-12
  outer loop
    vertex 10.300000000000004 97.09999999999678 2.000000000157095
    vertex 23.000000000000004 97.10000000000001 1.5707601053183138e-10
    vertex 23.000000000000004 97.09999999999678 2.000000000157095
  endloop
endfacet
facet normal -1.0 0.0 0.0
  outer loop
    vertex 23.000000000000004 97.10000000000001 1.5707601053183138e-10
    vertex 23.000000000000004 94.09999999999678 2.0000000001522418
    vertex 23.000000000000004 97.09999999999678 2.000000000157095
  endloop
endfacet
facet normal -1.0 0.0 0.0
  outer loop
    vertex 23.000000000000004 94.09999999999678 2.0000000001522418
    vertex 23.000000000000004 97.10000000000001 1.5707601053183138e-10
    vertex 23.000000000000004 94.10000000000002 1.5222284821536646e-10
  endloop
endfacet
facet normal 1.0 0.0 0.0
  outer loop
    vertex 3.9999999999999925 3.8000000000000136 6.147174436144098e-12
    vertex 3.9999999999999925 96.19999999999678 2.0000000001556386
    vertex 3.9999999999999925 3.7999999999967784 2.000000000006166
  endloop
endfacet
facet normal 1.0 0.0 0.0
  outer loop
    vertex 3.9999999999999925 96.19999999999678 2.0000000001556386
    vertex 3.9999999999999925 3.8000000000000136 6.147174436144098e-12
    vertex 3.9999999999999925 96.20000000000002 1.5561985033940573e-10
  endloop
endfacet
facet normal 0.0 1.0 1.617671274711796e-12
  outer loop
    vertex 6.000000000000079 3.7999999999967784 2.000000000006166
    vertex 3.9999999999999925 3.8000000000000136 6.147174436144098e-12
    vertex 3.9999999999999925 3.7999999999967784 2.000000000006166
  endloop
endfacet
facet normal 0.0 1.0 1.617671274711796e-12
  outer loop
    vertex 3.9999999999999925 3.8000000000000136 6.147174436144098e-12
    vertex 6.000000000000079 3.7999999999967784 2.000000000006166
    vertex 6.000000000000079 3.8000000000000136 6.147174436144098e-12
  endloop
endfacet
facet normal -1.0 0.0 0.0
  outer loop
    vertex 6.000000000000079 96.20000000000002 1.5561985033940573e-10
    vertex 6.000000000000079 3.7999999999967784 2.000000000006166
    vertex 6.000000000000079 96.19999999999678 2.0000000001556386
  endloop
endfacet
facet normal -1.0 0.0 0.0
  outer loop
    vertex 6.000000000000079 3.7999999999967784 2.000000000006166
    vertex 6.000000000000079 96.20000000000002 1.5561985033940573e-10
    vertex 6.000000000000079 3.8000000000000136 6.147174436144098e-12
  endloop
endfacet
facet normal 0.0 -1.0 -1.617671274711796e-12
  outer loop
    vertex 6.000000000000079 96.20000000000002 1.5561985033940573e-10
    vertex 3.9999999999999925 96.19999999999678 2.0000000001556386
    vertex 3.9999999999999925 96.20000000000002 1.5561985033940573e-10
  endloop
endfacet
facet normal 0.0 -1.0 -1.617671274711796e-12
  outer loop
    vertex 3.9999999999999925 96.19999999999678 2.0000000001556386
    vertex 6.000000000000079 96.20000000000002 1.5561985033940573e-10
    vertex 6.000000000000079 96.19999999999678 2.0000000001556386
  endloop
endfacet
facet normal 1.0 0.0 0.0
  outer loop
    vertex 61.50000000000018 24.999999999999996 4.0441844317840037e-11
    vertex 61.50000000000018 74.99999999999679 2.0000000001213443
    vertex 61.50000000000018 24.999999999996763 2.0000000000404605
  endloop
endfacet
facet normal 1.0 0.0 0.0
  outer loop
    vertex 61.50000000000018 74.99999999999679 2.0000000001213443
    vertex 61.50000000000018 24.999999999999996 4.0441844317840037e-11
    vertex 61.50000000000018 75.00000000000001 1.2132518045770979e-10
  endloop
endfacet
facet normal 1.0 0.0 0.0
  outer loop
    vertex 122.00000000000004 3.8000000000000136 6.147174436144098e-12
    vertex 122.00000000000004 96.19999999999678 2.0000000001556386
    vertex 122.00000000000004 3.7999999999967784 2.000000000006166
  endloop
endfacet
facet normal 1.0 0.0 0.0
  outer loop
    vertex 122.00000000000004 96.19999999999678 2.0000000001556386
    vertex 122.00000000000004 3.8000000000000136 6.147174436144098e-12
    vertex 122.00000000000004 96.20000000000002 1.5561985033940573e-10
  endloop
endfacet
facet normal 0.0 -1.0 -1.617671274711796e-12
  outer loop
    vertex 123.99999999999996 96.20000000000002 1.5561985033940573e-10
    vertex 122.00000000000004 96.19999999999678 2.0000000001556386
    vertex 122.00000000000004 96.20000000000002 1.5561985033940573e-10
  endloop
endfacet
facet normal 0.0 -1.0 -1.617671274711796e-12
  outer loop
    vertex 122.00000000000004 96.19999999999678 2.0000000001556386
    vertex 123.99999999999996 96.20000000000002 1.5561985033940573e-10
    vertex 123.99999999999996 96.19999999999678 2.0000000001556386
  endloop
endfacet
facet normal 0.0 1.0 1.617671274711796e-12
  outer loop
    vertex 23.000000000000004 3.899999999996778 2.000000000006328
    vertex 10.300000000000004 3.9000000000000132 6.308970013080283e-12
    vertex 10.300000000000004 3.899999999996778 2.000000000006328
  endloop
endfacet
facet normal 0.0 1.0 1.617671274711796e-12
  outer loop
    vertex 10.300000000000004 3.9000000000000132 6.308970013080283e-12
    vertex 23.000000000000004 3.899999999996778 2.000000000006328
    vertex 23.000000000000004 3.9000000000000132 6.308970013080283e-12
  endloop
endfacet
facet normal 1.0 0.0 0.0
  outer loop
    vertex 10.300000000000004 3.9000000000000132 6.308970013080283e-12
    vertex 10.300000000000004 6.899999999996773 2.000000000011181
    vertex 10.300000000000004 3.899999999996778 2.000000000006328
  endloop
endfacet
facet normal 1.0 0.0 0.0
  outer loop
    vertex 10.300000000000004 6.899999999996773 2.000000000011181
    vertex 10.300000000000004 3.9000000000000132 6.308970013080283e-12
    vertex 10.300000000000004 6.900000000000008 1.1161779833734897e-11
  endloop
endfacet
facet normal -1.0 0.0 0.0
  outer loop
    vertex 123.99999999999996 96.20000000000002 1.5561985033940573e-10
    vertex 123.99999999999996 3.7999999999967784 2.000000000006166
    vertex 123.99999999999996 96.19999999999678 2.0000000001556386
  endloop
endfacet
facet normal -1.0 0.0 0.0
  outer loop
    vertex 123.99999999999996 3.7999999999967784 2.000000000006166
    vertex 123.99999999999996 96.20000000000002 1.5561985033940573e-10
    vertex 123.99999999999996 3.8000000000000136 6.147174436144098e-12
  endloop
endfacet
facet normal 0.0 -1.0 -1.617671274711796e-12
  outer loop
    vertex 23.000000000000004 6.900000000000008 1.1161779833734897e-11
    vertex 10.300000000000004 6.899999999996773 2.000000000011181
    vertex 10.300000000000004 6.900000000000008 1.1161779833734897e-11
  endloop
endfacet
facet normal 0.0 -1.0 -1.617671274711796e-12
  outer loop
    vertex 10.300000000000004 6.899999999996773 2.000000000011181
    vertex 23.000000000000004 6.900000000000008 1.1161779833734897e-11
    vertex 23.000000000000004 6.899999999996773 2.000000000011181
  endloop
endfacet
facet normal 0.0 -1.0 -1.617671274711796e-12
  outer loop
    vertex 66.50000000000021 75.00000000000001 1.2132518045770979e-10
    vertex 61.50000000000018 74.99999999999679 2.0000000001213443
    vertex 61.50000000000018 75.00000000000001 1.2132518045770979e-10
  endloop
endfacet
facet normal 0.0 -1.0 -1.617671274711796e-12
  outer loop
    vertex 61.50000000000018 74.99999999999679 2.0000000001213443
    vertex 66.50000000000021 75.00000000000001 1.2132518045770979e-10
    vertex 66.50000000000021 74.99999999999679 2.0000000001213443
  endloop
endfacet
facet normal 0.0 1.0 1.617671274711796e-12
  outer loop
    vertex 123.99999999999996 3.7999999999967784 2.000000000006166
    vertex 122.00000000000004 3.8000000000000136 6.147174436144098e-12
    vertex 122.00000000000004 3.7999999999967784 2.000000000006166
  endloop
endfacet
facet normal 0.0 1.0 1.617671274711796e-12
  outer loop
    vertex 122.00000000000004 3.8000000000000136 6.147174436144098e-12
    vertex 123.99999999999996 3.7999999999967784 2.000000000006166
    vertex 123.99999999999996 3.8000000000000136 6.147174436144098e-12
  endloop
endfacet
facet normal -1.0 0.0 0.0
  outer loop
    vertex 66.50000000000021 75.00000000000001 1.2132518045770979e-10
    vertex 66.50000000000021 24.999999999996763 2.0000000000404605
    vertex 66.50000000000021 74.99999999999679 2.0000000001213443
  endloop
endfacet
facet normal -1.0 0.0 0.0
  outer loop
    vertex 66.50000000000021 24.999999999996763 2.0000000000404605
    vertex 66.50000000000021 75.00000000000001 1.2132518045770979e-10
    vertex 66.50000000000021 24.999999999999996 4.0441844317840037e-11
  endloop
endfacet
facet normal 0.0 1.0 1.617671274711796e-12
  outer loop
    vertex 66.50000000000021 24.999999999996763 2.0000000000404605
    vertex 61.50000000000018 24.999999999999996 4.0441844317840037e-11
    vertex 61.50000000000018 24.999999999996763 2.0000000000404605
  endloop
endfacet
facet normal 0.0 1.0 1.617671274711796e-12
  outer loop
    vertex 61.50000000000018 24.999999999999996 4.0441844317840037e-11
    vertex 66.50000000000021 24.999999999996763 2.0000000000404605
    vertex 66.50000000000021 24.999999999999996 4.0441844317840037e-11
  endloop
endfacet
facet normal -1.0 0.0 0.0
  outer loop
    vertex 23.000000000000004 6.900000000000008 1.1161779833734897e-11
    vertex 23.000000000000004 3.899999999996778 2.000000000006328
    vertex 23.000000000000004 6.899999999996773 2.000000000011181
  endloop
endfacet
facet normal -1.0 0.0 0.0
  outer loop
    vertex 23.000000000000004 3.899999999996778 2.000000000006328
    vertex 23.000000000000004 6.900000000000008 1.1161779833734897e-11
    vertex 23.000000000000004 3.9000000000000132 6.308970013080283e-12
  endloop
endfacet
facet normal -1.0 0.0 0.0
  outer loop
    vertex 74.5000000000002 75.00000000000001 1.2132518045770979e-10
    vertex 74.5000000000002 24.999999999996763 2.0000000000404605
    vertex 74.5000000000002 74.99999999999679 2.0000000001213443
  endloop
endfacet
facet normal -1.0 0.0 0.0
  outer loop
    vertex 74.5000000000002 24.999999999996763 2.0000000000404605
    vertex 74.5000000000002 75.00000000000001 1.2132518045770979e-10
    vertex 74.5000000000002 24.999999999999996 4.0441844317840037e-11
  endloop
endfacet
facet normal 0.0 1.0 1.617671274711796e-12
  outer loop
    vertex 117.4 3.899999999996778 2.000000000006328
    vertex 104.70000000000002 3.9000000000000132 6.308970013080283e-12
    vertex 104.70000000000002 3.899999999996778 2.0000000000063505
  endloop
endfacet
facet normal 0.0 1.0 1.617671274711796e-12
  outer loop
    vertex 104.70000000000002 3.9000000000000132 6.308970013080283e-12
    vertex 117.4 3.899999999996778 2.000000000006328
    vertex 117.4 3.9000000000000132 6.308970013080283e-12
  endloop
endfacet
facet normal 1.0 0.0 0.0
  outer loop
    vertex 69.50000000000026 24.999999999999996 4.0441844317840037e-11
    vertex 69.50000000000026 74.99999999999679 2.0000000001213443
    vertex 69.50000000000026 24.999999999996763 2.0000000000404605
  endloop
endfacet
facet normal 1.0 0.0 0.0
  outer loop
    vertex 69.50000000000026 74.99999999999679 2.0000000001213443
    vertex 69.50000000000026 24.999999999999996 4.0441844317840037e-11
    vertex 69.50000000000026 75.00000000000001 1.2132518045770979e-10
  endloop
endfacet
facet normal 0.0 -1.0 -1.617671274711796e-12
  outer loop
    vertex 117.4 6.900000000000008 1.1161779833734897e-11
    vertex 104.70000000000002 6.899999999996773 2.000000000011181
    vertex 104.70000000000002 6.900000000000008 1.1161779833734897e-11
  endloop
endfacet
facet normal 0.0 -1.0 -1.617671274711796e-12
  outer loop
    vertex 104.70000000000002 6.899999999996773 2.000000000011181
    vertex 117.4 6.900000000000008 1.1161779833734897e-11
    vertex 117.4 6.899999999996773 2.000000000011181
  endloop
endfacet
facet normal 0.0 1.0 1.617671274711796e-12
  outer loop
    vertex 74.5000000000002 24.999999999996763 2.0000000000404605
    vertex 69.50000000000026 24.999999999999996 4.0441844317840037e-11
    vertex 69.50000000000026 24.999999999996763 2.0000000000404605
  endloop
endfacet
facet normal 0.0 1.0 1.617671274711796e-12
  outer loop
    vertex 69.50000000000026 24.999999999999996 4.0441844317840037e-11
    vertex 74.5000000000002 24.999999999996763 2.0000000000404605
    vertex 74.5000000000002 24.999999999999996 4.0441844317840037e-11
  endloop
endfacet
facet normal 0.0 -1.0 -1.617671274711796e-12
  outer loop
    vertex 74.5000000000002 75.00000000000001 1.2132518045770979e-10
    vertex 69.50000000000026 74.99999999999679 2.0000000001213443
    vertex 69.50000000000026 75.00000000000001 1.2132518045770979e-10
  endloop
endfacet
facet normal 0.0 -1.0 -1.617671274711796e-12
  outer loop
    vertex 69.50000000000026 74.99999999999679 2.0000000001213443
    vertex 74.5000000000002 75.00000000000001 1.2132518045770979e-10
    vertex 74.5000000000002 74.99999999999679 2.0000000001213443
  endloop
endfacet
facet normal -1.0 0.0 0.0
  outer loop
    vertex 117.4 6.900000000000008 1.1161779833734897e-11
    vertex 117.4 3.899999999996778 2.000000000006328
    vertex 117.4 6.899999999996773 2.000000000011181
  endloop
endfacet
facet normal -1.0 0.0 0.0
  outer loop
    vertex 117.4 3.899999999996778 2.000000000006328
    vertex 117.4 6.900000000000008 1.1161779833734897e-11
    vertex 117.4 3.9000000000000132 6.308970013080283e-12
  endloop
endfacet
facet normal 1.0 0.0 0.0
  outer loop
    vertex 104.70000000000002 3.9000000000000132 6.308970013080283e-12
    vertex 104.70000000000002 6.899999999996773 2.000000000011181
    vertex 104.70000000000002 3.899999999996778 2.0000000000063505
  endloop
endfacet
facet normal 1.0 0.0 0.0
  outer loop
    vertex 104.70000000000002 6.899999999996773 2.000000000011181
    vertex 104.70000000000002 3.9000000000000132 6.308970013080283e-12
    vertex 104.70000000000002 6.900000000000008 1.1161779833734897e-11
  endloop
endfacet
facet normal 0.0 1.0 1.617671274711796e-12
  outer loop
    vertex 58.50000000000005 24.999999999996763 2.0000000000404605
    vertex 53.50000000000011 24.999999999999996 4.0441844317840037e-11
    vertex 53.50000000000011 24.999999999996763 2.0000000000404605
  endloop
endfacet
facet normal 0.0 1.0 1.617671274711796e-12
  outer loop
    vertex 53.50000000000011 24.999999999999996 4.0441844317840037e-11
    vertex 58.50000000000005 24.999999999996763 2.0000000000404605
    vertex 58.50000000000005 24.999999999999996 4.0441844317840037e-11
  endloop
endfacet
facet normal 1.0 0.0 0.0
  outer loop
    vertex 53.50000000000011 24.999999999999996 4.0441844317840037e-11
    vertex 53.50000000000011 74.99999999999679 2.0000000001213443
    vertex 53.50000000000011 24.999999999996763 2.0000000000404605
  endloop
endfacet
facet normal 1.0 0.0 0.0
  outer loop
    vertex 53.50000000000011 74.99999999999679 2.0000000001213443
    vertex 53.50000000000011 24.999999999999996 4.0441844317840037e-11
    vertex 53.50000000000011 75.00000000000001 1.2132518045770979e-10
  endloop
endfacet
facet normal -1.0 0.0 0.0
  outer loop
    vertex 58.50000000000005 75.00000000000001 1.2132518045770979e-10
    vertex 58.50000000000005 24.999999999996763 2.0000000000404605
    vertex 58.50000000000005 74.99999999999679 2.0000000001213443
  endloop
endfacet
facet normal -1.0 0.0 0.0
  outer loop
    vertex 58.50000000000005 24.999999999996763 2.0000000000404605
    vertex 58.50000000000005 75.00000000000001 1.2132518045770979e-10
    vertex 58.50000000000005 24.999999999999996 4.0441844317840037e-11
  endloop
endfacet
facet normal 0.0 -1.617671274711796e-12 1.0
  outer loop
    vertex 6.000000000000079 3.7999999999967784 2.000000000006166
    vertex 10.300000000000004 3.899999999996778 2.000000000006328
    vertex 6.000000000000079 96.19999999999678 2.0000000001556386
  endloop
endfacet
facet normal 0.0 -1.617671274711796e-12 1.0
  outer loop
    vertex 10.300000000000004 3.899999999996778 2.000000000006328
    vertex 6.000000000000079 3.7999999999967784 2.000000000006166
    vertex 117.4 3.899999999996778 2.000000000006328
  endloop
endfacet
facet normal 0.0 -1.617671274711796e-12 1.0
  outer loop
    vertex 10.300000000000004 3.899999999996778 2.000000000006328
    vertex 117.4 3.899999999996778 2.000000000006328
    vertex 104.70000000000002 3.899999999996778 2.0000000000063505
  endloop
endfacet
facet normal 0.0 -1.617671274711796e-12 1.0
  outer loop
    vertex 10.300000000000004 3.899999999996778 2.000000000006328
    vertex 104.70000000000002 3.899999999996778 2.0000000000063505
    vertex 23.000000000000004 3.899999999996778 2.000000000006328
  endloop
endfacet
facet normal 0.0 -1.617671274711796e-12 1.0
  outer loop
    vertex 6.000000000000079 96.19999999999678 2.0000000001556386
    vertex 10.300000000000004 3.899999999996778 2.000000000006328
    vertex 10.300000000000004 6.899999999996773 2.000000000011181
  endloop
endfacet
facet normal 0.0 -1.617671274711796e-12 1.0
  outer loop
    vertex 6.000000000000079 96.19999999999678 2.0000000001556386
    vertex 10.300000000000004 6.899999999996773 2.000000000011181
    vertex 35.499999999999865 18.999999999996774 2.000000000030777
  endloop
endfacet
facet normal 0.0 -1.617671274711796e-12 1.0
  outer loop
    vertex 35.499999999999865 18.999999999996774 2.000000000030777
    vertex 10.300000000000004 6.899999999996773 2.000000000011181
    vertex 92.50000000000009 18.999999999996774 2.000000000030755
  endloop
endfacet
facet normal 0.0 -1.617671274711796e-12 1.0
  outer loop
    vertex 35.499999999999865 18.999999999996774 2.000000000030777
    vertex 92.50000000000009 18.999999999996774 2.000000000030755
    vertex 85.50000000000014 18.999999999996774 2.000000000030755
  endloop
endfacet
facet normal 0.0 -1.617671274711796e-12 1.0
  outer loop
    vertex 35.499999999999865 18.999999999996774 2.000000000030777
    vertex 85.50000000000014 18.999999999996774 2.000000000030755
    vertex 42.4999999999999 18.999999999996774 2.000000000030755
  endloop
endfacet
facet normal 0.0 -1.617671274711796e-12 1.0
  outer loop
    vertex 6.000000000000079 96.19999999999678 2.0000000001556386
    vertex 35.499999999999865 18.999999999996774 2.000000000030777
    vertex 35.499999999999865 21.999999999996767 2.0000000000356075
  endloop
endfacet
facet normal 0.0 -1.617671274711796e-12 1.0
  outer loop
    vertex 6.000000000000079 96.19999999999678 2.0000000001556386
    vertex 35.499999999999865 21.999999999996767 2.0000000000356075
    vertex 45.50000000000003 24.999999999996763 2.0000000000404605
  endloop
endfacet
facet normal 0.0 -1.617671274711796e-12 1.0
  outer loop
    vertex 45.50000000000003 24.999999999996763 2.0000000000404605
    vertex 35.499999999999865 21.999999999996767 2.0000000000356075
    vertex 82.50000000000018 24.999999999996763 2.0000000000404605
  endloop
endfacet
facet normal 0.0 -1.617671274711796e-12 1.0
  outer loop
    vertex 45.50000000000003 24.999999999996763 2.0000000000404605
    vertex 82.50000000000018 24.999999999996763 2.0000000000404605
    vertex 77.50000000000033 24.999999999996763 2.0000000000404605
  endloop
endfacet
facet normal 0.0 -1.617671274711796e-12 1.0
  outer loop
    vertex 45.50000000000003 24.999999999996763 2.0000000000404605
    vertex 77.50000000000033 24.999999999996763 2.0000000000404605
    vertex 74.5000000000002 24.999999999996763 2.0000000000404605
  endloop
endfacet
facet normal 0.0 -1.617671274711796e-12 1.0
  outer loop
    vertex 45.50000000000003 24.999999999996763 2.0000000000404605
    vertex 74.5000000000002 24.999999999996763 2.0000000000404605
    vertex 69.50000000000026 24.999999999996763 2.0000000000404605
  endloop
endfacet
facet normal 0.0 -1.617671274711796e-12 1.0
  outer loop
    vertex 45.50000000000003 24.999999999996763 2.0000000000404605
    vertex 69.50000000000026 24.999999999996763 2.0000000000404605
    vertex 66.50000000000021 24.999999999996763 2.0000000000404605
  endloop
endfacet
facet normal 0.0 -1.617671274711796e-12 1.0
  outer loop
    vertex 45.50000000000003 24.999999999996763 2.0000000000404605
    vertex 66.50000000000021 24.999999999996763 2.0000000000404605
    vertex 61.50000000000018 24.999999999996763 2.0000000000404605
  endloop
endfacet
facet normal 0.0 -1.617671274711796e-12 1.0
  outer loop
    vertex 45.50000000000003 24.999999999996763 2.0000000000404605
    vertex 61.50000000000018 24.999999999996763 2.0000000000404605
    vertex 58.50000000000005 24.999999999996763 2.0000000000404605
  endloop
endfacet
facet normal 0.0 -1.617671274711796e-12 1.0
  outer loop
    vertex 45.50000000000003 24.999999999996763 2.0000000000404605
    vertex 58.50000000000005 24.999999999996763 2.0000000000404605
    vertex 53.50000000000011 24.999999999996763 2.0000000000404605
  endloop
endfacet
facet normal 0.0 -1.617671274711796e-12 1.0
  outer loop
    vertex 45.50000000000003 24.999999999996763 2.0000000000404605
    vertex 53.50000000000011 24.999999999996763 2.0000000000404605
    vertex 50.500000000000064 24.999999999996763 2.0000000000404605
  endloop
endfacet
facet normal 0.0 -1.617671274711796e-12 1.0
  outer loop
    vertex 6.000000000000079 96.19999999999678 2.0000000001556386
    vertex 45.50000000000003 24.999999999996763 2.0000000000404605
    vertex 35.499999999999865 77.99999999999679 2.0000000001261973
  endloop
endfacet
facet normal 0.0 -1.617671274711796e-12 1.0
  outer loop
    vertex 35.499999999999865 77.99999999999679 2.0000000001261973
    vertex 45.50000000000003 24.999999999996763 2.0000000000404605
    vertex 45.50000000000003 74.99999999999679 2.0000000001213443
  endloop
endfacet
facet normal 0.0 -1.617671274711796e-12 1.0
  outer loop
    vertex 35.499999999999865 77.99999999999679 2.0000000001261973
    vertex 45.50000000000003 74.99999999999679 2.0000000001213443
    vertex 92.50000000000009 77.99999999999679 2.0000000001261973
  endloop
endfacet
facet normal 0.0 -1.617671274711796e-12 1.0
  outer loop
    vertex 35.499999999999865 77.99999999999679 2.0000000001261973
    vertex 92.50000000000009 77.99999999999679 2.0000000001261973
    vertex 85.50000000000014 77.99999999999679 2.0000000001261973
  endloop
endfacet
facet normal 0.0 -1.617671274711796e-12 1.0
  outer loop
    vertex 35.499999999999865 77.99999999999679 2.0000000001261973
    vertex 85.50000000000014 77.99999999999679 2.0000000001261973
    vertex 42.4999999999999 77.99999999999679 2.0000000001261973
  endloop
endfacet
facet normal 0.0 -1.617671274711796e-12 1.0
  outer loop
    vertex 6.000000000000079 96.19999999999678 2.0000000001556386
    vertex 35.499999999999865 77.99999999999679 2.0000000001261973
    vertex 35.499999999999865 80.99999999999677 2.0000000001310503
  endloop
endfacet
facet normal 0.0 -1.617671274711796e-12 1.0
  outer loop
    vertex 6.000000000000079 96.19999999999678 2.0000000001556386
    vertex 35.499999999999865 80.99999999999677 2.0000000001310503
    vertex 10.300000000000004 94.09999999999678 2.0000000001522418
  endloop
endfacet
facet normal 0.0 -1.617671274711796e-12 1.0
  outer loop
    vertex 10.300000000000004 94.09999999999678 2.0000000001522418
    vertex 35.499999999999865 80.99999999999677 2.0000000001310503
    vertex 117.4 94.09999999999678 2.0000000001522418
  endloop
endfacet
facet normal 0.0 -1.617671274711796e-12 1.0
  outer loop
    vertex 10.300000000000004 94.09999999999678 2.0000000001522418
    vertex 117.4 94.09999999999678 2.0000000001522418
    vertex 104.70000000000002 94.09999999999678 2.0000000001522418
  endloop
endfacet
facet normal 0.0 -1.617671274711796e-12 1.0
  outer loop
    vertex 10.300000000000004 94.09999999999678 2.0000000001522418
    vertex 104.70000000000002 94.09999999999678 2.0000000001522418
    vertex 23.000000000000004 94.09999999999678 2.0000000001522418
  endloop
endfacet
facet normal 0.0 -1.617671274711796e-12 1.0
  outer loop
    vertex 6.000000000000079 96.19999999999678 2.0000000001556386
    vertex 10.300000000000004 94.09999999999678 2.0000000001522418
    vertex 10.300000000000004 97.09999999999678 2.000000000157095
  endloop
endfacet
facet normal 0.0 -1.617671274711796e-12 1.0
  outer loop
    vertex 6.000000000000079 96.19999999999678 2.0000000001556386
    vertex 10.300000000000004 97.09999999999678 2.000000000157095
    vertex 3.9999999999999925 96.19999999999678 2.0000000001556386
  endloop
endfacet
facet normal 0.0 -1.617671274711796e-12 1.0
  outer loop
    vertex 128.00000000000003 -3.2373215219649498e-12 2.000000000000019
    vertex 123.99999999999996 3.7999999999967784 2.000000000006166
    vertex 0.0 -3.2373215219649498e-12 2.000000000000019
  endloop
endfacet
facet normal 0.0 -1.617671274711796e-12 1.0
  outer loop
    vertex 123.99999999999996 3.7999999999967784 2.000000000006166
    vertex 128.00000000000003 -3.2373215219649498e-12 2.000000000000019
    vertex 128.00000000000003 99.99999999999677 2.000000000161786
  endloop
endfacet
facet normal 0.0 -1.617671274711796e-12 1.0
  outer loop
    vertex 123.99999999999996 3.7999999999967784 2.000000000006166
    vertex 128.00000000000003 99.99999999999677 2.000000000161786
    vertex 123.99999999999996 96.19999999999678 2.0000000001556386
  endloop
endfacet
facet normal 0.0 -1.617671274711796e-12 1.0
  outer loop
    vertex 123.99999999999996 96.19999999999678 2.0000000001556386
    vertex 128.00000000000003 99.99999999999677 2.000000000161786
    vertex 122.00000000000004 96.19999999999678 2.0000000001556386
  endloop
endfacet
facet normal 0.0 -1.617671274711796e-12 1.0
  outer loop
    vertex 122.00000000000004 96.19999999999678 2.0000000001556386
    vertex 128.00000000000003 99.99999999999677 2.000000000161786
    vertex 117.4 97.09999999999678 2.000000000157095
  endloop
endfacet
facet normal 0.0 -1.617671274711796e-12 1.0
  outer loop
    vertex 117.4 97.09999999999678 2.000000000157095
    vertex 128.00000000000003 99.99999999999677 2.000000000161786
    vertex 104.70000000000002 97.09999999999678 2.000000000157095
  endloop
endfacet
facet normal 0.0 -1.617671274711796e-12 1.0
  outer loop
    vertex 104.70000000000002 97.09999999999678 2.000000000157095
    vertex 128.00000000000003 99.99999999999677 2.000000000161786
    vertex 23.000000000000004 97.09999999999678 2.000000000157095
  endloop
endfacet
facet normal 0.0 -1.617671274711796e-12 1.0
  outer loop
    vertex 23.000000000000004 97.09999999999678 2.000000000157095
    vertex 128.00000000000003 99.99999999999677 2.000000000161786
    vertex 10.300000000000004 97.09999999999678 2.000000000157095
  endloop
endfacet
facet normal 0.0 -1.617671274711796e-12 1.0
  outer loop
    vertex 0.0 -3.2373215219649498e-12 2.000000000000019
    vertex 3.9999999999999925 3.7999999999967784 2.000000000006166
    vertex 0.0 99.99999999999677 2.000000000161786
  endloop
endfacet
facet normal 0.0 -1.617671274711796e-12 1.0
  outer loop
    vertex 3.9999999999999925 3.7999999999967784 2.000000000006166
    vertex 0.0 -3.2373215219649498e-12 2.000000000000019
    vertex 123.99999999999996 3.7999999999967784 2.000000000006166
  endloop
endfacet
facet normal 0.0 -1.617671274711796e-12 1.0
  outer loop
    vertex 3.9999999999999925 3.7999999999967784 2.000000000006166
    vertex 123.99999999999996 3.7999999999967784 2.000000000006166
    vertex 122.00000000000004 3.7999999999967784 2.000000000006166
  endloop
endfacet
facet normal 0.0 -1.617671274711796e-12 1.0
  outer loop
    vertex 3.9999999999999925 3.7999999999967784 2.000000000006166
    vertex 122.00000000000004 3.7999999999967784 2.000000000006166
    vertex 6.000000000000079 3.7999999999967784 2.000000000006166
  endloop
endfacet
facet normal 0.0 -1.617671274711796e-12 1.0
  outer loop
    vertex 0.0 99.99999999999677 2.000000000161786
    vertex 3.9999999999999925 3.7999999999967784 2.000000000006166
    vertex 3.9999999999999925 96.19999999999678 2.0000000001556386
  endloop
endfacet
facet normal 0.0 -1.617671274711796e-12 1.0
  outer loop
    vertex 0.0 99.99999999999677 2.000000000161786
    vertex 3.9999999999999925 96.19999999999678 2.0000000001556386
    vertex 10.300000000000004 97.09999999999678 2.000000000157095
  endloop
endfacet
facet normal 0.0 -1.617671274711796e-12 1.0
  outer loop
    vertex 0.0 99.99999999999677 2.000000000161786
    vertex 10.300000000000004 97.09999999999678 2.000000000157095
    vertex 128.00000000000003 99.99999999999677 2.000000000161786
  endloop
endfacet
facet normal 0.0 -1.617671274711796e-12 1.0
  outer loop
    vertex 104.70000000000002 97.09999999999678 2.000000000157095
    vertex 23.000000000000004 94.09999999999678 2.0000000001522418
    vertex 104.70000000000002 94.09999999999678 2.0000000001522418
  endloop
endfacet
facet normal 0.0 -1.617671274711796e-12 1.0
  outer loop
    vertex 23.000000000000004 94.09999999999678 2.0000000001522418
    vertex 104.70000000000002 97.09999999999678 2.000000000157095
    vertex 23.000000000000004 97.09999999999678 2.000000000157095
  endloop
endfacet
facet normal 0.0 -1.617671274711796e-12 1.0
  outer loop
    vertex 122.00000000000004 3.7999999999967784 2.000000000006166
    vertex 117.4 3.899999999996778 2.000000000006328
    vertex 6.000000000000079 3.7999999999967784 2.000000000006166
  endloop
endfacet
facet normal 0.0 -1.617671274711796e-12 1.0
  outer loop
    vertex 117.4 3.899999999996778 2.000000000006328
    vertex 122.00000000000004 3.7999999999967784 2.000000000006166
    vertex 122.00000000000004 96.19999999999678 2.0000000001556386
  endloop
endfacet
facet normal 0.0 -1.617671274711796e-12 1.0
  outer loop
    vertex 117.4 3.899999999996778 2.000000000006328
    vertex 122.00000000000004 96.19999999999678 2.0000000001556386
    vertex 117.4 6.899999999996773 2.000000000011181
  endloop
endfacet
facet normal 0.0 -1.617671274711796e-12 1.0
  outer loop
    vertex 117.4 6.899999999996773 2.000000000011181
    vertex 122.00000000000004 96.19999999999678 2.0000000001556386
    vertex 104.70000000000002 6.899999999996773 2.000000000011181
  endloop
endfacet
facet normal 0.0 -1.617671274711796e-12 1.0
  outer loop
    vertex 104.70000000000002 6.899999999996773 2.000000000011181
    vertex 122.00000000000004 96.19999999999678 2.0000000001556386
    vertex 92.50000000000009 18.999999999996774 2.000000000030755
  endloop
endfacet
facet normal 0.0 -1.617671274711796e-12 1.0
  outer loop
    vertex 104.70000000000002 6.899999999996773 2.000000000011181
    vertex 92.50000000000009 18.999999999996774 2.000000000030755
    vertex 23.000000000000004 6.899999999996773 2.000000000011181
  endloop
endfacet
facet normal 0.0 -1.617671274711796e-12 1.0
  outer loop
    vertex 23.000000000000004 6.899999999996773 2.000000000011181
    vertex 92.50000000000009 18.999999999996774 2.000000000030755
    vertex 10.300000000000004 6.899999999996773 2.000000000011181
  endloop
endfacet
facet normal 0.0 -1.617671274711796e-12 1.0
  outer loop
    vertex 92.50000000000009 18.999999999996774 2.000000000030755
    vertex 122.00000000000004 96.19999999999678 2.0000000001556386
    vertex 92.50000000000009 21.999999999996767 2.0000000000356075
  endloop
endfacet
facet normal 0.0 -1.617671274711796e-12 1.0
  outer loop
    vertex 92.50000000000009 21.999999999996767 2.0000000000356075
    vertex 122.00000000000004 96.19999999999678 2.0000000001556386
    vertex 85.50000000000014 21.999999999996767 2.0000000000356075
  endloop
endfacet
facet normal 0.0 -1.617671274711796e-12 1.0
  outer loop
    vertex 85.50000000000014 21.999999999996767 2.0000000000356075
    vertex 122.00000000000004 96.19999999999678 2.0000000001556386
    vertex 82.50000000000018 24.999999999996763 2.0000000000404605
  endloop
endfacet
facet normal 0.0 -1.617671274711796e-12 1.0
  outer loop
    vertex 85.50000000000014 21.999999999996767 2.0000000000356075
    vertex 82.50000000000018 24.999999999996763 2.0000000000404605
    vertex 42.4999999999999 21.999999999996767 2.0000000000356075
  endloop
endfacet
facet normal 0.0 -1.617671274711796e-12 1.0
  outer loop
    vertex 42.4999999999999 21.999999999996767 2.0000000000356075
    vertex 82.50000000000018 24.999999999996763 2.0000000000404605
    vertex 35.499999999999865 21.999999999996767 2.0000000000356075
  endloop
endfacet
facet normal 0.0 -1.617671274711796e-12 1.0
  outer loop
    vertex 82.50000000000018 24.999999999996763 2.0000000000404605
    vertex 122.00000000000004 96.19999999999678 2.0000000001556386
    vertex 92.50000000000009 77.99999999999679 2.0000000001261973
  endloop
endfacet
facet normal 0.0 -1.617671274711796e-12 1.0
  outer loop
    vertex 82.50000000000018 24.999999999996763 2.0000000000404605
    vertex 92.50000000000009 77.99999999999679 2.0000000001261973
    vertex 82.50000000000018 74.99999999999679 2.0000000001213443
  endloop
endfacet
facet normal 0.0 -1.617671274711796e-12 1.0
  outer loop
    vertex 82.50000000000018 74.99999999999679 2.0000000001213443
    vertex 92.50000000000009 77.99999999999679 2.0000000001261973
    vertex 77.50000000000033 74.99999999999679 2.0000000001213443
  endloop
endfacet
facet normal 0.0 -1.617671274711796e-12 1.0
  outer loop
    vertex 77.50000000000033 74.99999999999679 2.0000000001213443
    vertex 92.50000000000009 77.99999999999679 2.0000000001261973
    vertex 74.5000000000002 74.99999999999679 2.0000000001213443
  endloop
endfacet
facet normal 0.0 -1.617671274711796e-12 1.0
  outer loop
    vertex 74.5000000000002 74.99999999999679 2.0000000001213443
    vertex 92.50000000000009 77.99999999999679 2.0000000001261973
    vertex 69.50000000000026 74.99999999999679 2.0000000001213443
  endloop
endfacet
facet normal 0.0 -1.617671274711796e-12 1.0
  outer loop
    vertex 69.50000000000026 74.99999999999679 2.0000000001213443
    vertex 92.50000000000009 77.99999999999679 2.0000000001261973
    vertex 66.50000000000021 74.99999999999679 2.0000000001213443
  endloop
endfacet
facet normal 0.0 -1.617671274711796e-12 1.0
  outer loop
    vertex 66.50000000000021 74.99999999999679 2.0000000001213443
    vertex 92.50000000000009 77.99999999999679 2.0000000001261973
    vertex 61.50000000000018 74.99999999999679 2.0000000001213443
  endloop
endfacet
facet normal 0.0 -1.617671274711796e-12 1.0
  outer loop
    vertex 61.50000000000018 74.99999999999679 2.0000000001213443
    vertex 92.50000000000009 77.99999999999679 2.0000000001261973
    vertex 58.50000000000005 74.99999999999679 2.0000000001213443
  endloop
endfacet
facet normal 0.0 -1.617671274711796e-12 1.0
  outer loop
    vertex 58.50000000000005 74.99999999999679 2.0000000001213443
    vertex 92.50000000000009 77.99999999999679 2.0000000001261973
    vertex 53.50000000000011 74.99999999999679 2.0000000001213443
  endloop
endfacet
facet normal 0.0 -1.617671274711796e-12 1.0
  outer loop
    vertex 53.50000000000011 74.99999999999679 2.0000000001213443
    vertex 92.50000000000009 77.99999999999679 2.0000000001261973
    vertex 50.500000000000064 74.99999999999679 2.0000000001213443
  endloop
endfacet
facet normal 0.0 -1.617671274711796e-12 1.0
  outer loop
    vertex 50.500000000000064 74.99999999999679 2.0000000001213443
    vertex 92.50000000000009 77.99999999999679 2.0000000001261973
    vertex 45.50000000000003 74.99999999999679 2.0000000001213443
  endloop
endfacet
facet normal 0.0 -1.617671274711796e-12 1.0
  outer loop
    vertex 92.50000000000009 77.99999999999679 2.0000000001261973
    vertex 122.00000000000004 96.19999999999678 2.0000000001556386
    vertex 92.50000000000009 80.99999999999677 2.0000000001310503
  endloop
endfacet
facet normal 0.0 -1.617671274711796e-12 1.0
  outer loop
    vertex 92.50000000000009 80.99999999999677 2.0000000001310503
    vertex 122.00000000000004 96.19999999999678 2.0000000001556386
    vertex 117.4 94.09999999999678 2.0000000001522418
  endloop
endfacet
facet normal 0.0 -1.617671274711796e-12 1.0
  outer loop
    vertex 92.50000000000009 80.99999999999677 2.0000000001310503
    vertex 117.4 94.09999999999678 2.0000000001522418
    vertex 85.50000000000014 80.99999999999677 2.0000000001310503
  endloop
endfacet
facet normal 0.0 -1.617671274711796e-12 1.0
  outer loop
    vertex 85.50000000000014 80.99999999999677 2.0000000001310503
    vertex 117.4 94.09999999999678 2.0000000001522418
    vertex 42.4999999999999 80.99999999999677 2.0000000001310503
  endloop
endfacet
facet normal 0.0 -1.617671274711796e-12 1.0
  outer loop
    vertex 42.4999999999999 80.99999999999677 2.0000000001310503
    vertex 117.4 94.09999999999678 2.0000000001522418
    vertex 35.499999999999865 80.99999999999677 2.0000000001310503
  endloop
endfacet
facet normal 0.0 -1.617671274711796e-12 1.0
  outer loop
    vertex 117.4 94.09999999999678 2.0000000001522418
    vertex 122.00000000000004 96.19999999999678 2.0000000001556386
    vertex 117.4 97.09999999999678 2.000000000157095
  endloop
endfacet
facet normal 0.0 -1.617671274711796e-12 1.0
  outer loop
    vertex 85.50000000000014 80.99999999999677 2.0000000001310503
    vertex 42.4999999999999 77.99999999999679 2.0000000001261973
    vertex 85.50000000000014 77.99999999999679 2.0000000001261973
  endloop
endfacet
facet normal 0.0 -1.617671274711796e-12 1.0
  outer loop
    vertex 42.4999999999999 77.99999999999679 2.0000000001261973
    vertex 85.50000000000014 80.99999999999677 2.0000000001310503
    vertex 42.4999999999999 80.99999999999677 2.0000000001310503
  endloop
endfacet
facet normal 0.0 -1.617671274711796e-12 1.0
  outer loop
    vertex 53.50000000000011 74.99999999999679 2.0000000001213443
    vertex 50.500000000000064 24.999999999996763 2.0000000000404605
    vertex 53.50000000000011 24.999999999996763 2.0000000000404605
  endloop
endfacet
facet normal 0.0 -1.617671274711796e-12 1.0
  outer loop
    vertex 50.500000000000064 24.999999999996763 2.0000000000404605
    vertex 53.50000000000011 74.99999999999679 2.0000000001213443
    vertex 50.500000000000064 74.99999999999679 2.0000000001213443
  endloop
endfacet
facet normal 0.0 -1.617671274711796e-12 1.0
  outer loop
    vertex 61.50000000000018 74.99999999999679 2.0000000001213443
    vertex 58.50000000000005 24.999999999996763 2.0000000000404605
    vertex 61.50000000000018 24.999999999996763 2.0000000000404605
  endloop
endfacet
facet normal 0.0 -1.617671274711796e-12 1.0
  outer loop
    vertex 58.50000000000005 24.999999999996763 2.0000000000404605
    vertex 61.50000000000018 74.99999999999679 2.0000000001213443
    vertex 58.50000000000005 74.99999999999679 2.0000000001213443
  endloop
endfacet
facet normal 0.0 -1.617671274711796e-12 1.0
  outer loop
    vertex 69.50000000000026 74.99999999999679 2.0000000001213443
    vertex 66.50000000000021 24.999999999996763 2.0000000000404605
    vertex 69.50000000000026 24.999999999996763 2.0000000000404605
  endloop
endfacet
facet normal 0.0 -1.617671274711796e-12 1.0
  outer loop
    vertex 66.50000000000021 24.999999999996763 2.0000000000404605
    vertex 69.50000000000026 74.99999999999679 2.0000000001213443
    vertex 66.50000000000021 74.99999999999679 2.0000000001213443
  endloop
endfacet
facet normal 0.0 -1.617671274711796e-12 1.0
  outer loop
    vertex 77.50000000000033 74.99999999999679 2.0000000001213443
    vertex 74.5000000000002 24.999999999996763 2.0000000000404605
    vertex 77.50000000000033 24.999999999996763 2.0000000000404605
  endloop
endfacet
facet normal 0.0 -1.617671274711796e-12 1.0
  outer loop
    vertex 74.5000000000002 24.999999999996763 2.0000000000404605
    vertex 77.50000000000033 74.99999999999679 2.0000000001213443
    vertex 74.5000000000002 74.99999999999679 2.0000000001213443
  endloop
endfacet
facet normal 0.0 -1.617671274711796e-12 1.0
  outer loop
    vertex 85.50000000000014 21.999999999996767 2.0000000000356075
    vertex 42.4999999999999 18.999999999996774 2.000000000030755
    vertex 85.50000000000014 18.999999999996774 2.000000000030755
  endloop
endfacet
facet normal 0.0 -1.617671274711796e-12 1.0
  outer loop
    vertex 42.4999999999999 18.999999999996774 2.000000000030755
    vertex 85.50000000000014 21.999999999996767 2.0000000000356075
    vertex 42.4999999999999 21.999999999996767 2.0000000000356075
  endloop
endfacet
facet normal 0.0 -1.617671274711796e-12 1.0
  outer loop
    vertex 104.70000000000002 6.899999999996773 2.000000000011181
    vertex 23.000000000000004 3.899999999996778 2.000000000006328
    vertex 104.70000000000002 3.899999999996778 2.0000000000063505
  endloop
endfacet
facet normal 0.0 -1.617671274711796e-12 1.0
  outer loop
    vertex 23.000000000000004 3.899999999996778 2.000000000006328
    vertex 104.70000000000002 6.899999999996773 2.000000000011181
    vertex 23.000000000000004 6.899999999996773 2.000000000011181
  endloop
endfacet
facet normal 0.0 -1.0 -1.617671274711796e-12
  outer loop
    vertex 58.50000000000005 75.00000000000001 1.2132518045770979e-10
    vertex 53.50000000000011 74.99999999999679 2.0000000001213443
    vertex 53.50000000000011 75.00000000000001 1.2132518045770979e-10
  endloop
endfacet
facet normal 0.0 -1.0 -1.617671274711796e-12
  outer loop
    vertex 53.50000000000011 74.99999999999679 2.0000000001213443
    vertex 58.50000000000005 75.00000000000001 1.2132518045770979e-10
    vertex 58.50000000000005 74.99999999999679 2.0000000001213443
  endloop
endfacet
facet normal 1.0 0.0 0.0
  outer loop
    vertex 45.50000000000003 24.999999999999996 4.0441844317840037e-11
    vertex 45.50000000000003 74.99999999999679 2.0000000001213443
    vertex 45.50000000000003 24.999999999996763 2.0000000000404605
  endloop
endfacet
facet normal 1.0 0.0 0.0
  outer loop
    vertex 45.50000000000003 74.99999999999679 2.0000000001213443
    vertex 45.50000000000003 24.999999999999996 4.0441844317840037e-11
    vertex 45.50000000000003 75.00000000000001 1.2132518045770979e-10
  endloop
endfacet
facet normal 0.0 1.0 1.617671274711796e-12
  outer loop
    vertex 50.500000000000064 24.999999999996763 2.0000000000404605
    vertex 45.50000000000003 24.999999999999996 4.0441844317840037e-11
    vertex 45.50000000000003 24.999999999996763 2.0000000000404605
  endloop
endfacet
facet normal 0.0 1.0 1.617671274711796e-12
  outer loop
    vertex 45.50000000000003 24.999999999999996 4.0441844317840037e-11
    vertex 50.500000000000064 24.999999999996763 2.0000000000404605
    vertex 50.500000000000064 24.999999999999996 4.0441844317840037e-11
  endloop
endfacet
facet normal 0.0 -1.0 -1.617671274711796e-12
  outer loop
    vertex 50.500000000000064 75.00000000000001 1.2132518045770979e-10
    vertex 45.50000000000003 74.99999999999679 2.0000000001213443
    vertex 45.50000000000003 75.00000000000001 1.2132518045770979e-10
  endloop
endfacet
facet normal 0.0 -1.0 -1.617671274711796e-12
  outer loop
    vertex 45.50000000000003 74.99999999999679 2.0000000001213443
    vertex 50.500000000000064 75.00000000000001 1.2132518045770979e-10
    vertex 50.500000000000064 74.99999999999679 2.0000000001213443
  endloop
endfacet
facet normal -1.0 0.0 0.0
  outer loop
    vertex 50.500000000000064 75.00000000000001 1.2132518045770979e-10
    vertex 50.500000000000064 24.999999999996763 2.0000000000404605
    vertex 50.500000000000064 74.99999999999679 2.0000000001213443
  endloop
endfacet
facet normal -1.0 0.0 0.0
  outer loop
    vertex 50.500000000000064 24.999999999996763 2.0000000000404605
    vertex 50.500000000000064 75.00000000000001 1.2132518045770979e-10
    vertex 50.500000000000064 24.999999999999996 4.0441844317840037e-11
  endloop
endfacet
facet normal 0.0 1.0 1.617671274711796e-12
  outer loop
    vertex 82.50000000000018 24.999999999996763 2.0000000000404605
    vertex 77.50000000000033 24.999999999999996 4.0441844317840037e-11
    vertex 77.50000000000033 24.999999999996763 2.0000000000404605
  endloop
endfacet
facet normal 0.0 1.0 1.617671274711796e-12
  outer loop
    vertex 77.50000000000033 24.999999999999996 4.0441844317840037e-11
    vertex 82.50000000000018 24.999999999996763 2.0000000000404605
    vertex 82.50000000000018 24.999999999999996 4.0441844317840037e-11
  endloop
endfacet
facet normal -1.0 0.0 0.0
  outer loop
    vertex 82.50000000000018 75.00000000000001 1.2132518045770979e-10
    vertex 82.50000000000018 24.999999999996763 2.0000000000404605
    vertex 82.50000000000018 74.99999999999679 2.0000000001213443
  endloop
endfacet
facet normal -1.0 0.0 0.0
  outer loop
    vertex 82.50000000000018 24.999999999996763 2.0000000000404605
    vertex 82.50000000000018 75.00000000000001 1.2132518045770979e-10
    vertex 82.50000000000018 24.999999999999996 4.0441844317840037e-11
  endloop
endfacet
facet normal 1.0 0.0 0.0
  outer loop
    vertex 77.50000000000033 24.999999999999996 4.0441844317840037e-11
    vertex 77.50000000000033 74.99999999999679 2.0000000001213443
    vertex 77.50000000000033 24.999999999996763 2.0000000000404605
  endloop
endfacet
facet normal 1.0 0.0 0.0
  outer loop
    vertex 77.50000000000033 74.99999999999679 2.0000000001213443
    vertex 77.50000000000033 24.999999999999996 4.0441844317840037e-11
    vertex 77.50000000000033 75.00000000000001 1.2132518045770979e-10
  endloop
endfacet
facet normal 0.0 -1.0 -1.617671274711796e-12
  outer loop
    vertex 117.4 97.10000000000001 1.5707601053183138e-10
    vertex 104.70000000000002 97.09999999999678 2.000000000157095
    vertex 104.70000000000002 97.10000000000001 1.5707601053183138e-10
  endloop
endfacet
facet normal 0.0 -1.0 -1.617671274711796e-12
  outer loop
    vertex 104.70000000000002 97.09999999999678 2.000000000157095
    vertex 117.4 97.10000000000001 1.5707601053183138e-10
    vertex 117.4 97.09999999999678 2.000000000157095
  endloop
endfacet
facet normal -1.0 0.0 0.0
  outer loop
    vertex 117.4 97.10000000000001 1.5707601053183138e-10
    vertex 117.4 94.09999999999678 2.0000000001522418
    vertex 117.4 97.09999999999678 2.000000000157095
  endloop
endfacet
facet normal -1.0 0.0 0.0
  outer loop
    vertex 117.4 94.09999999999678 2.0000000001522418
    vertex 117.4 97.10000000000001 1.5707601053183138e-10
    vertex 117.4 94.10000000000002 1.5222284821536646e-10
  endloop
endfacet
facet normal 0.0 1.0 1.617671274711796e-12
  outer loop
    vertex 117.4 94.09999999999678 2.0000000001522418
    vertex 104.70000000000002 94.10000000000002 1.5222284821536646e-10
    vertex 104.70000000000002 94.09999999999678 2.0000000001522418
  endloop
endfacet
facet normal 0.0 1.0 1.617671274711796e-12
  outer loop
    vertex 104.70000000000002 94.10000000000002 1.5222284821536646e-10
    vertex 117.4 94.09999999999678 2.0000000001522418
    vertex 117.4 94.10000000000002 1.5222284821536646e-10
  endloop
endfacet
facet normal 0.0 -1.0 -1.617671274711796e-12
  outer loop
    vertex 82.50000000000018 75.00000000000001 1.2132518045770979e-10
    vertex 77.50000000000033 74.99999999999679 2.0000000001213443
    vertex 77.50000000000033 75.00000000000001 1.2132518045770979e-10
  endloop
endfacet
facet normal 0.0 -1.0 -1.617671274711796e-12
  outer loop
    vertex 77.50000000000033 74.99999999999679 2.0000000001213443
    vertex 82.50000000000018 75.00000000000001 1.2132518045770979e-10
    vertex 82.50000000000018 74.99999999999679 2.0000000001213443
  endloop
endfacet
facet normal 1.0 0.0 0.0
  outer loop
    vertex 104.70000000000002 94.10000000000002 1.5222284821536646e-10
    vertex 104.70000000000002 97.09999999999678 2.000000000157095
    vertex 104.70000000000002 94.09999999999678 2.0000000001522418
  endloop
endfacet
facet normal 1.0 0.0 0.0
  outer loop
    vertex 104.70000000000002 97.09999999999678 2.000000000157095
    vertex 104.70000000000002 94.10000000000002 1.5222284821536646e-10
    vertex 104.70000000000002 97.10000000000001 1.5707601053183138e-10
  endloop
endfacet
facet normal 0.0 -1.0 -1.617671274711796e-12
  outer loop
    vertex 92.50000000000009 22.000000000000004 3.55886820013751e-11
    vertex 85.50000000000014 21.999999999996767 2.0000000000356075
    vertex 85.50000000000014 22.000000000000004 3.55886820013751e-11
  endloop
endfacet
facet normal 0.0 -1.0 -1.617671274711796e-12
  outer loop
    vertex 85.50000000000014 21.999999999996767 2.0000000000356075
    vertex 92.50000000000009 22.000000000000004 3.55886820013751e-11
    vertex 92.50000000000009 21.999999999996767 2.0000000000356075
  endloop
endfacet
facet normal 0.0 1.0 1.617671274711796e-12
  outer loop
    vertex 92.50000000000009 18.999999999996774 2.000000000030755
    vertex 85.50000000000014 19.000000000000007 3.073587218072049e-11
    vertex 85.50000000000014 18.999999999996774 2.000000000030755
  endloop
endfacet
facet normal 0.0 1.0 1.617671274711796e-12
  outer loop
    vertex 85.50000000000014 19.000000000000007 3.073587218072049e-11
    vertex 92.50000000000009 18.999999999996774 2.000000000030755
    vertex 92.50000000000009 19.000000000000007 3.073587218072049e-11
  endloop
endfacet
facet normal 1.0 0.0 0.0
  outer loop
    vertex 85.50000000000014 19.000000000000007 3.073587218072049e-11
    vertex 85.50000000000014 21.999999999996767 2.0000000000356075
    vertex 85.50000000000014 18.999999999996774 2.000000000030755
  endloop
endfacet
facet normal 1.0 0.0 0.0
  outer loop
    vertex 85.50000000000014 21.999999999996767 2.0000000000356075
    vertex 85.50000000000014 19.000000000000007 3.073587218072049e-11
    vertex 85.50000000000014 22.000000000000004 3.55886820013751e-11
  endloop
endfacet
facet normal -1.0 0.0 0.0
  outer loop
    vertex 92.50000000000009 22.000000000000004 3.55886820013751e-11
    vertex 92.50000000000009 18.999999999996774 2.000000000030755
    vertex 92.50000000000009 21.999999999996767 2.0000000000356075
  endloop
endfacet
facet normal -1.0 0.0 0.0
  outer loop
    vertex 92.50000000000009 18.999999999996774 2.000000000030755
    vertex 92.50000000000009 22.000000000000004 3.55886820013751e-11
    vertex 92.50000000000009 19.000000000000007 3.073587218072049e-11
  endloop
endfacet
facet normal -1.0 0.0 0.0
  outer loop
    vertex 42.4999999999999 22.000000000000004 3.55886820013751e-11
    vertex 42.4999999999999 18.999999999996774 2.000000000030755
    vertex 42.4999999999999 21.999999999996767 2.0000000000356075
  endloop
endfacet
facet normal -1.0 0.0 0.0
  outer loop
    vertex 42.4999999999999 18.999999999996774 2.000000000030755
    vertex 42.4999999999999 22.000000000000004 3.55886820013751e-11
    vertex 42.4999999999999 19.000000000000007 3.073587218072049e-11
  endloop
endfacet
facet normal 0.0 -1.0 -1.617671274711796e-12
  outer loop
    vertex 42.4999999999999 22.000000000000004 3.55886820013751e-11
    vertex 35.499999999999865 21.999999999996767 2.0000000000356075
    vertex 35.499999999999865 22.000000000000004 3.55886820013751e-11
  endloop
endfacet
facet normal 0.0 -1.0 -1.617671274711796e-12
  outer loop
    vertex 35.499999999999865 21.999999999996767 2.0000000000356075
    vertex 42.4999999999999 22.000000000000004 3.55886820013751e-11
    vertex 42.4999999999999 21.999999999996767 2.0000000000356075
  endloop
endfacet
facet normal 0.0 1.0 1.617671274711796e-12
  outer loop
    vertex 42.4999999999999 18.999999999996774 2.000000000030755
    vertex 35.499999999999865 19.000000000000007 3.073587218072049e-11
    vertex 35.499999999999865 18.999999999996774 2.000000000030777
  endloop
endfacet
facet normal 0.0 1.0 1.617671274711796e-12
  outer loop
    vertex 35.499999999999865 19.000000000000007 3.073587218072049e-11
    vertex 42.4999999999999 18.999999999996774 2.000000000030755
    vertex 42.4999999999999 19.000000000000007 3.073587218072049e-11
  endloop
endfacet
facet normal 1.0 0.0 0.0
  outer loop
    vertex 35.499999999999865 19.000000000000007 3.073587218072049e-11
    vertex 35.499999999999865 21.999999999996767 2.0000000000356075
    vertex 35.499999999999865 18.999999999996774 2.000000000030777
  endloop
endfacet
facet normal 1.0 0.0 0.0
  outer loop
    vertex 35.499999999999865 21.999999999996767 2.0000000000356075
    vertex 35.499999999999865 19.000000000000007 3.073587218072049e-11
    vertex 35.499999999999865 22.000000000000004 3.55886820013751e-11
  endloop
endfacet
endsolid Piece2
