solid Piece5
facet normal -8.65053335024692e-37 -1.1827690352943128e-32 -1.0
  outer loop
    vertex 1.0828671292983925e-12 114.95966680852169 0.0
    vertex 2.000193652181963 102.20975383106729 0.0
    vertex 0.0 102.20975383106855 0.0
  endloop
endfacet
facet normal -8.65053335024692e-37 -1.1827690352943128e-32 -1.0
  outer loop
    vertex 2.000193652181963 102.20975383106729 0.0
    vertex 1.0828671292983925e-12 114.95966680852169 0.0
    vertex 2.00019365218088 114.95966680852042 0.0
  endloop
endfacet
facet normal -8.65053335024692e-37 -1.1827690352943128e-32 -1.0
  outer loop
    vertex 2.000193652181963 102.20975383106729 0.0
    vertex 2.00019365218088 114.95966680852042 0.0
    vertex 2.000193652181602 117.99994944506271 0.0
  endloop
endfacet
facet normal -8.65053335024692e-37 -1.1827690352943128e-32 -1.0
  outer loop
    vertex 2.000193652181963 102.20975383106729 0.0
    vertex 2.000193652181602 117.99994944506271 0.0
    vertex 6.2874320895238665 117.9999494450629 0.0
  endloop
endfacet
facet normal -8.65053335024692e-37 -1.1827690352943128e-32 -1.0
  outer loop
    vertex 2.000193652181963 102.20975383106729 0.0
    vertex 6.2874320895238665 117.9999494450629 0.0
    vertex 2.000193652181963 5.021220276730533 0.0
  endloop
endfacet
facet normal -8.65053335024692e-37 -1.1827690352943128e-32 -1.0
  outer loop
    vertex 113.38764836786989 119.96306954037873 0.0
    vertex 100.68611173299558 117.96222111820313 0.0
    vertex 100.68611173299523 119.96306954037982 0.0
  endloop
endfacet
facet normal -8.65053335024692e-37 -1.1827690352943128e-32 -1.0
  outer loop
    vertex 100.68611173299558 117.96222111820313 0.0
    vertex 113.38764836786989 119.96306954037873 0.0
    vertex 100.68611173299668 2.000193652181512 0.0
  endloop
endfacet
facet normal -8.65053335024692e-37 -1.1827690352943128e-32 -1.0
  outer loop
    vertex 100.68611173299668 2.000193652181512 0.0
    vertex 113.38764836786989 119.96306954037873 0.0
    vertex 113.38764836786844 117.96222111820332 0.0
  endloop
endfacet
facet normal -8.65053335024692e-37 -1.1827690352943128e-32 -1.0
  outer loop
    vertex 117.99980634782052 117.96222111820367 0.0
    vertex 113.38764836786844 2.0001936521825945 0.0
    vertex 113.38764836786844 117.96222111820332 0.0
  endloop
endfacet
facet normal -8.65053335024692e-37 -1.1827690352943128e-32 -1.0
  outer loop
    vertex 113.38764836786844 2.0001936521825945 0.0
    vertex 117.99980634782052 117.96222111820367 0.0
    vertex 117.99980634782017 114.95966680852074 0.0
  endloop
endfacet
facet normal -8.65053335024692e-37 -1.1827690352943128e-32 -1.0
  outer loop
    vertex 113.38764836786844 2.0001936521825945 0.0
    vertex 117.99980634782017 114.95966680852074 0.0
    vertex 117.9998063478198 17.77113325418389 0.0
  endloop
endfacet
facet normal -8.65053335024692e-37 -1.1827690352943128e-32 -1.0
  outer loop
    vertex 117.99980634782017 114.95966680852074 0.0
    vertex 117.99980634782052 102.2097538310667 0.0
    vertex 117.9998063478198 17.77113325418389 0.0
  endloop
endfacet
facet normal -8.65053335024692e-37 -1.1827690352943128e-32 -1.0
  outer loop
    vertex 117.99980634782052 102.2097538310667 0.0
    vertex 117.99980634782017 114.95966680852074 0.0
    vertex 120.00000000000068 114.95966680852146 0.0
  endloop
endfacet
facet normal -8.65053335024692e-37 -1.1827690352943128e-32 -1.0
  outer loop
    vertex 117.99980634782052 102.2097538310667 0.0
    vertex 120.00000000000068 114.95966680852146 0.0
    vertex 120.00000000000033 102.20975383106706 0.0
  endloop
endfacet
facet normal -8.65053335024692e-37 -1.1827690352943128e-32 -1.0
  outer loop
    vertex 117.9998063478198 17.77113325418389 0.0
    vertex 117.9998063478198 2.000193652181331 0.0
    vertex 113.38764836786844 2.0001936521825945 0.0
  endloop
endfacet
facet normal -8.65053335024692e-37 -1.1827690352943128e-32 -1.0
  outer loop
    vertex 117.9998063478198 2.000193652181331 0.0
    vertex 117.9998063478198 17.77113325418389 0.0
    vertex 117.99980634782052 5.021220276729856 0.0
  endloop
endfacet
facet normal -8.65053335024692e-37 -1.1827690352943128e-32 -1.0
  outer loop
    vertex 117.99980634782052 5.021220276729856 0.0
    vertex 117.9998063478198 17.77113325418389 0.0
    vertex 120.00000000000033 17.771133254184072 0.0
  endloop
endfacet
facet normal -8.65053335024692e-37 -1.1827690352943128e-32 -1.0
  outer loop
    vertex 117.99980634782052 5.021220276729856 0.0
    vertex 120.00000000000033 17.771133254184072 0.0
    vertex 120.00000000000068 5.021220276729135 0.0
  endloop
endfacet
facet normal -8.65053335024692e-37 -1.1827690352943128e-32 -1.0
  outer loop
    vertex 100.68611173299668 2.000193652181512 0.0
    vertex 113.38764836786916 0.0 0.0
    vertex 100.68611173299523 2.255973186038318e-12 0.0
  endloop
endfacet
facet normal -8.65053335024692e-37 -1.1827690352943128e-32 -1.0
  outer loop
    vertex 113.38764836786916 0.0 0.0
    vertex 100.68611173299668 2.000193652181512 0.0
    vertex 113.38764836786844 2.0001936521825945 0.0
  endloop
endfacet
facet normal -8.65053335024692e-37 -1.1827690352943128e-32 -1.0
  outer loop
    vertex 113.38764836786844 2.0001936521825945 0.0
    vertex 100.68611173299668 2.000193652181512 0.0
    vertex 113.38764836786844 117.96222111820332 0.0
  endloop
endfacet
facet normal -8.65053335024692e-37 -1.1827690352943128e-32 -1.0
  outer loop
    vertex 2.000193652181963 5.021220276730533 0.0
    vertex 6.287612345098253 2.0001936521833614 0.0
    vertex 2.000193652181241 2.000193652183001 0.0
  endloop
endfacet
facet normal -8.65053335024692e-37 -1.1827690352943128e-32 -1.0
  outer loop
    vertex 6.287612345098253 2.0001936521833614 0.0
    vertex 2.000193652181963 5.021220276730533 0.0
    vertex 6.2874320895238665 117.9999494450629 0.0
  endloop
endfacet
facet normal -8.65053335024692e-37 -1.1827690352943128e-32 -1.0
  outer loop
    vertex 6.287612345098253 2.0001936521833614 0.0
    vertex 6.2874320895238665 117.9999494450629 0.0
    vertex 6.287432089524227 119.99999999999685 0.0
  endloop
endfacet
facet normal -8.65053335024692e-37 -1.1827690352943128e-32 -1.0
  outer loop
    vertex 6.287612345098253 2.0001936521833614 0.0
    vertex 6.287432089524227 119.99999999999685 0.0
    vertex 18.98914897997002 119.99999999999739 0.0
  endloop
endfacet
facet normal -8.65053335024692e-37 -1.1827690352943128e-32 -1.0
  outer loop
    vertex 6.287612345098253 2.0001936521833614 0.0
    vertex 18.98914897997002 119.99999999999739 0.0
    vertex 18.98914897996966 1.4889423027852898e-12 0.0
  endloop
endfacet
facet normal -8.65053335024692e-37 -1.1827690352943128e-32 -1.0
  outer loop
    vertex 18.98914897996966 1.4889423027852898e-12 0.0
    vertex 18.98914897997002 119.99999999999739 0.0
    vertex 18.989148979970743 2.0001936521829102 0.0
  endloop
endfacet
facet normal -8.65053335024692e-37 -1.1827690352943128e-32 -1.0
  outer loop
    vertex 18.989148979970743 2.0001936521829102 0.0
    vertex 18.98914897997002 119.99999999999739 0.0
    vertex 18.989148979970384 117.96222111820408 0.0
  endloop
endfacet
facet normal -8.65053335024692e-37 -1.1827690352943128e-32 -1.0
  outer loop
    vertex 18.989148979970743 2.0001936521829102 0.0
    vertex 18.989148979970384 117.96222111820408 0.0
    vertex 100.68611173299558 117.96222111820313 0.0
  endloop
endfacet
facet normal -8.65053335024692e-37 -1.1827690352943128e-32 -1.0
  outer loop
    vertex 18.989148979970743 2.0001936521829102 0.0
    vertex 100.68611173299558 117.96222111820313 0.0
    vertex 100.68611173299668 2.000193652181512 0.0
  endloop
endfacet
facet normal -8.65053335024692e-37 -1.1827690352943128e-32 -1.0
  outer loop
    vertex 18.98914897996966 1.4889423027852898e-12 0.0
    vertex 6.287612345097892 1.5791812302268227e-12 0.0
    vertex 6.287612345098253 2.0001936521833614 0.0
  endloop
endfacet
facet normal -8.65053335024692e-37 -1.1827690352943128e-32 -1.0
  outer loop
    vertex 2.000193652181602 17.771133254183574 0.0
    vertex 7.219114195322617e-13 5.021220276730082 0.0
    vertex 3.6095570976613087e-13 17.771133254183574 0.0
  endloop
endfacet
facet normal -8.65053335024692e-37 -1.1827690352943128e-32 -1.0
  outer loop
    vertex 7.219114195322617e-13 5.021220276730082 0.0
    vertex 2.000193652181602 17.771133254183574 0.0
    vertex 2.000193652181963 5.021220276730533 0.0
  endloop
endfacet
facet normal -8.65053335024692e-37 -1.1827690352943128e-32 -1.0
  outer loop
    vertex 2.000193652181963 5.021220276730533 0.0
    vertex 2.000193652181602 17.771133254183574 0.0
    vertex 2.000193652181963 102.20975383106729 0.0
  endloop
endfacet
facet normal 1.8046038160993258e-13 -1.0 1.0395143354884306e-32
  outer loop
    vertex 120.00000000000033 102.20975383106706 3.0000000000000058
    vertex 117.99980634782052 102.2097538310667 0.0
    vertex 120.00000000000033 102.20975383106706 0.0
  endloop
endfacet
facet normal 1.8046038160993258e-13 -1.0 1.0395143354884306e-32
  outer loop
    vertex 117.99980634782052 102.2097538310667 0.0
    vertex 120.00000000000033 102.20975383106706 3.0000000000000058
    vertex 117.99980634782052 102.2097538310667 3.0000000000000058
  endloop
endfacet
facet normal -3.609207632198e-13 -1.0 0.0
  outer loop
    vertex 120.00000000000068 5.021220276729135 3.0000000000000058
    vertex 117.99980634782052 5.021220276729856 0.0
    vertex 120.00000000000068 5.021220276729135 0.0
  endloop
endfacet
facet normal -3.609207632198e-13 -1.0 0.0
  outer loop
    vertex 117.99980634782052 5.021220276729856 0.0
    vertex 120.00000000000068 5.021220276729135 3.0000000000000058
    vertex 117.99980634782052 5.021220276729856 3.0000000000000058
  endloop
endfacet
facet normal 1.0 -7.216053065602695e-13 1.4450682086405638e-32
  outer loop
    vertex 113.38764836786989 119.96306954037873 0.0
    vertex 113.38764836786844 117.96222111820332 3.0000000000000058
    vertex 113.38764836786844 117.96222111820332 0.0
  endloop
endfacet
facet normal 1.0 -7.216053065602695e-13 1.4450682086405638e-32
  outer loop
    vertex 113.38764836786844 117.96222111820332 3.0000000000000058
    vertex 113.38764836786989 119.96306954037873 0.0
    vertex 113.38764836786989 119.96306954037873 3.0000000000000058
  endloop
endfacet
facet normal -9.02301908049337e-14 1.0 0.0
  outer loop
    vertex 117.9998063478198 17.77113325418389 3.0000000000000058
    vertex 120.00000000000033 17.771133254184072 0.0
    vertex 117.9998063478198 17.77113325418389 0.0
  endloop
endfacet
facet normal -9.02301908049337e-14 1.0 0.0
  outer loop
    vertex 120.00000000000033 17.771133254184072 0.0
    vertex 117.9998063478198 17.77113325418389 3.0000000000000058
    vertex 120.00000000000033 17.771133254184072 3.0000000000000058
  endloop
endfacet
facet normal 1.0 -2.8310444973578013e-14 1.4450682086398432e-32
  outer loop
    vertex 120.00000000000068 114.95966680852146 0.0
    vertex 120.00000000000033 102.20975383106706 3.0000000000000058
    vertex 120.00000000000033 102.20975383106706 0.0
  endloop
endfacet
facet normal 1.0 -2.8310444973578013e-14 1.4450682086398432e-32
  outer loop
    vertex 120.00000000000033 102.20975383106706 3.0000000000000058
    vertex 120.00000000000068 114.95966680852146 0.0
    vertex 120.00000000000068 114.95966680852146 3.0000000000000058
  endloop
endfacet
facet normal -1.0 -1.8040132663995347e-13 -1.445068208639626e-32
  outer loop
    vertex 100.68611173299523 119.96306954037982 3.0000000000000058
    vertex 100.68611173299558 117.96222111820313 0.0
    vertex 100.68611173299558 117.96222111820313 3.0000000000000058
  endloop
endfacet
facet normal -1.0 -1.8040132663995347e-13 -1.445068208639626e-32
  outer loop
    vertex 100.68611173299558 117.96222111820313 0.0
    vertex 100.68611173299523 119.96306954037982 3.0000000000000058
    vertex 100.68611173299523 119.96306954037982 0.0
  endloop
endfacet
facet normal 1.0 3.609207632193603e-13 0.0
  outer loop
    vertex 113.38764836786844 2.0001936521825945 0.0
    vertex 113.38764836786916 0.0 3.0000000000000058
    vertex 113.38764836786916 0.0 0.0
  endloop
endfacet
facet normal 1.0 3.609207632193603e-13 0.0
  outer loop
    vertex 113.38764836786916 0.0 3.0000000000000058
    vertex 113.38764836786844 2.0001936521825945 0.0
    vertex 113.38764836786844 2.0001936521825945 3.0000000000000058
  endloop
endfacet
facet normal -7.826178360219154e-14 1.0 -1.0395143354882825e-32
  outer loop
    vertex 113.38764836786844 117.96222111820332 3.0000000000000058
    vertex 117.99980634782052 117.96222111820367 0.0
    vertex 113.38764836786844 117.96222111820332 0.0
  endloop
endfacet
facet normal -7.826178360219154e-14 1.0 -1.0395143354882825e-32
  outer loop
    vertex 117.99980634782052 117.96222111820367 0.0
    vertex 113.38764836786844 117.96222111820332 3.0000000000000058
    vertex 117.99980634782052 117.96222111820367 3.0000000000000058
  endloop
endfacet
facet normal 8.418951719421389e-14 -1.0 0.0
  outer loop
    vertex 6.287612345098253 2.0001936521833614 3.0000000000000058
    vertex 2.000193652181241 2.000193652183001 0.0
    vertex 6.287612345098253 2.0001936521833614 0.0
  endloop
endfacet
facet normal 8.418951719421389e-14 -1.0 0.0
  outer loop
    vertex 2.000193652181241 2.000193652183001 0.0
    vertex 6.287612345098253 2.0001936521833614 3.0000000000000058
    vertex 2.000193652181241 2.000193652183001 3.0000000000000058
  endloop
endfacet
facet normal 8.525481289603656e-14 1.0 -1.0395143354880463e-32
  outer loop
    vertex 100.68611173299523 119.96306954037982 3.0000000000000058
    vertex 113.38764836786989 119.96306954037873 0.0
    vertex 100.68611173299523 119.96306954037982 0.0
  endloop
endfacet
facet normal 8.525481289603656e-14 1.0 -1.0395143354880463e-32
  outer loop
    vertex 113.38764836786989 119.96306954037873 0.0
    vertex 100.68611173299523 119.96306954037982 3.0000000000000058
    vertex 113.38764836786989 119.96306954037873 3.0000000000000058
  endloop
endfacet
facet normal -1.0 7.218415264399255e-13 0.0
  outer loop
    vertex 100.68611173299668 2.000193652181512 3.0000000000000058
    vertex 100.68611173299523 2.255973186038318e-12 0.0
    vertex 100.68611173299523 2.255973186038318e-12 3.0000000000000058
  endloop
endfacet
facet normal -1.0 7.218415264399255e-13 0.0
  outer loop
    vertex 100.68611173299523 2.255973186038318e-12 0.0
    vertex 100.68611173299668 2.000193652181512 3.0000000000000058
    vertex 100.68611173299668 2.000193652181512 0.0
  endloop
endfacet
facet normal 1.2002534275944165e-14 1.0 -7.772969231135089e-29
  outer loop
    vertex 18.989148979970384 117.96222111820408 3.0000000000000058
    vertex 100.68611173299558 117.96222111820313 0.0
    vertex 18.989148979970384 117.96222111820408 0.0
  endloop
endfacet
facet normal 1.2002534275944165e-14 1.0 -7.772969231135089e-29
  outer loop
    vertex 100.68611173299558 117.96222111820313 0.0
    vertex 18.989148979970384 117.96222111820408 3.0000000000000058
    vertex 100.68611173299558 117.96222111820313 3.0000000000000058
  endloop
endfacet
facet normal 1.0 2.8310444973576814e-14 0.0
  outer loop
    vertex 120.00000000000033 17.771133254184072 0.0
    vertex 120.00000000000068 5.021220276729135 3.0000000000000058
    vertex 120.00000000000068 5.021220276729135 0.0
  endloop
endfacet
facet normal 1.0 2.8310444973576814e-14 0.0
  outer loop
    vertex 120.00000000000068 5.021220276729135 3.0000000000000058
    vertex 120.00000000000033 17.771133254184072 0.0
    vertex 120.00000000000033 17.771133254184072 3.0000000000000058
  endloop
endfacet
facet normal 1.0 -5.41381144829358e-13 0.0
  outer loop
    vertex 18.989148979970743 2.0001936521829102 0.0
    vertex 18.98914897996966 1.4889423027852898e-12 3.0000000000000058
    vertex 18.98914897996966 1.4889423027852898e-12 0.0
  endloop
endfacet
facet normal 1.0 -5.41381144829358e-13 0.0
  outer loop
    vertex 18.98914897996966 1.4889423027852898e-12 3.0000000000000058
    vertex 18.989148979970743 2.0001936521829102 0.0
    vertex 18.989148979970743 2.0001936521829102 3.0000000000000058
  endloop
endfacet
facet normal -1.776141935334196e-13 -1.0 0.0
  outer loop
    vertex 113.38764836786916 0.0 3.0000000000000058
    vertex 100.68611173299523 2.255973186038318e-12 0.0
    vertex 113.38764836786916 0.0 0.0
  endloop
endfacet
facet normal -1.776141935334196e-13 -1.0 0.0
  outer loop
    vertex 100.68611173299523 2.255973186038318e-12 0.0
    vertex 113.38764836786916 0.0 3.0000000000000058
    vertex 100.68611173299523 2.255973186038318e-12 3.0000000000000058
  endloop
endfacet
facet normal 6.31611335634764e-13 1.0 -1.039514335487257e-32
  outer loop
    vertex 1.0828671292983925e-12 114.95966680852169 3.0000000000000058
    vertex 2.00019365218088 114.95966680852042 0.0
    vertex 1.0828671292983925e-12 114.95966680852169 0.0
  endloop
endfacet
facet normal 6.31611335634764e-13 1.0 -1.039514335487257e-32
  outer loop
    vertex 2.00019365218088 114.95966680852042 0.0
    vertex 1.0828671292983925e-12 114.95966680852169 3.0000000000000058
    vertex 2.00019365218088 114.95966680852042 3.0000000000000058
  endloop
endfacet
facet normal -4.209652845782631e-14 1.0 -1.0395143354882302e-32
  outer loop
    vertex 2.000193652181602 117.99994944506271 3.0000000000000058
    vertex 6.2874320895238665 117.9999494450629 0.0
    vertex 2.000193652181602 117.99994944506271 0.0
  endloop
endfacet
facet normal -4.209652845782631e-14 1.0 -1.0395143354882302e-32
  outer loop
    vertex 6.2874320895238665 117.9999494450629 0.0
    vertex 2.000193652181602 117.99994944506271 3.0000000000000058
    vertex 6.2874320895238665 117.9999494450629 3.0000000000000058
  endloop
endfacet
facet normal -1.0 2.389622831081088e-13 0.0
  outer loop
    vertex 2.000193652181963 5.021220276730533 3.0000000000000058
    vertex 2.000193652181241 2.000193652183001 0.0
    vertex 2.000193652181241 2.000193652183001 3.0000000000000058
  endloop
endfacet
facet normal -1.0 2.389622831081088e-13 0.0
  outer loop
    vertex 2.000193652181241 2.000193652183001 0.0
    vertex 2.000193652181963 5.021220276730533 3.0000000000000058
    vertex 2.000193652181963 5.021220276730533 0.0
  endloop
endfacet
facet normal -4.2626801504012546e-14 1.0 -1.039514335488231e-32
  outer loop
    vertex 6.287432089524227 119.99999999999685 3.0000000000000058
    vertex 18.98914897997002 119.99999999999739 0.0
    vertex 6.287432089524227 119.99999999999685 0.0
  endloop
endfacet
facet normal -4.2626801504012546e-14 1.0 -1.039514335488231e-32
  outer loop
    vertex 18.98914897997002 119.99999999999739 0.0
    vertex 6.287432089524227 119.99999999999685 3.0000000000000058
    vertex 18.98914897997002 119.99999999999739 3.0000000000000058
  endloop
endfacet
facet normal 1.0 -8.549540655687868e-15 5.439020074252418e-43
  outer loop
    vertex 117.99980634782052 102.2097538310667 0.0
    vertex 117.9998063478198 17.77113325418389 3.0000000000000058
    vertex 117.9998063478198 17.77113325418389 0.0
  endloop
endfacet
facet normal 1.0 -8.549540655687868e-15 5.439020074252418e-43
  outer loop
    vertex 117.9998063478198 17.77113325418389 3.0000000000000058
    vertex 117.99980634782052 102.2097538310667 0.0
    vertex 117.99980634782052 102.2097538310667 3.0000000000000058
  endloop
endfacet
facet normal -1.0 8.493133492074245e-14 -1.4450682086399023e-32
  outer loop
    vertex 1.0828671292983925e-12 114.95966680852169 3.0000000000000058
    vertex 0.0 102.20975383106855 0.0
    vertex 0.0 102.20975383106855 3.0000000000000058
  endloop
endfacet
facet normal -1.0 8.493133492074245e-14 -1.4450682086399023e-32
  outer loop
    vertex 0.0 102.20975383106855 0.0
    vertex 1.0828671292983925e-12 114.95966680852169 3.0000000000000058
    vertex 1.0828671292983925e-12 114.95966680852169 0.0
  endloop
endfacet
facet normal -1.0 1.8046038160975343e-13 0.0
  outer loop
    vertex 6.287612345098253 2.0001936521833614 3.0000000000000058
    vertex 6.287612345097892 1.5791812302268227e-12 0.0
    vertex 6.287612345097892 1.5791812302268227e-12 3.0000000000000058
  endloop
endfacet
facet normal -1.0 1.8046038160975343e-13 0.0
  outer loop
    vertex 6.287612345097892 1.5791812302268227e-12 0.0
    vertex 6.287612345098253 2.0001936521833614 3.0000000000000058
    vertex 6.287612345098253 2.0001936521833614 0.0
  endloop
endfacet
facet normal -1.0 -2.8310444973580017e-14 0.0
  outer loop
    vertex 3.6095570976613087e-13 17.771133254183574 3.0000000000000058
    vertex 7.219114195322617e-13 5.021220276730082 0.0
    vertex 7.219114195322617e-13 5.021220276730082 3.0000000000000058
  endloop
endfacet
facet normal -1.0 -2.8310444973580017e-14 0.0
  outer loop
    vertex 7.219114195322617e-13 5.021220276730082 0.0
    vertex 3.6095570976613087e-13 17.771133254183574 3.0000000000000058
    vertex 3.6095570976613087e-13 17.771133254183574 0.0
  endloop
endfacet
facet normal -1.7120628824012816e-14 -1.0 0.0
  outer loop
    vertex 100.68611173299668 2.000193652181512 3.0000000000000058
    vertex 18.989148979970743 2.0001936521829102 0.0
    vertex 100.68611173299668 2.000193652181512 0.0
  endloop
endfacet
facet normal -1.7120628824012816e-14 -1.0 0.0
  outer loop
    vertex 18.989148979970743 2.0001936521829102 0.0
    vertex 100.68611173299668 2.000193652181512 3.0000000000000058
    vertex 18.989148979970743 2.0001936521829102 3.0000000000000058
  endloop
endfacet
facet normal -6.3161133563408e-13 -1.0 1.0395143354872567e-32
  outer loop
    vertex 2.000193652181963 102.20975383106729 3.0000000000000058
    vertex 0.0 102.20975383106855 0.0
    vertex 2.000193652181963 102.20975383106729 0.0
  endloop
endfacet
facet normal -6.3161133563408e-13 -1.0 1.0395143354872567e-32
  outer loop
    vertex 0.0 102.20975383106855 0.0
    vertex 2.000193652181963 102.20975383106729 3.0000000000000058
    vertex 0.0 102.20975383106855 3.0000000000000058
  endloop
endfacet
facet normal -1.0 2.374487854699227e-13 -1.445068208640061e-32
  outer loop
    vertex 2.000193652181602 117.99994944506271 3.0000000000000058
    vertex 2.00019365218088 114.95966680852042 0.0
    vertex 2.00019365218088 114.95966680852042 3.0000000000000058
  endloop
endfacet
facet normal -1.0 2.374487854699227e-13 -1.445068208640061e-32
  outer loop
    vertex 2.00019365218088 114.95966680852042 0.0
    vertex 2.000193652181602 117.99994944506271 3.0000000000000058
    vertex 2.000193652181602 117.99994944506271 0.0
  endloop
endfacet
facet normal -1.0 4.274770327843889e-15 2.7195100371261802e-43
  outer loop
    vertex 2.000193652181963 102.20975383106729 3.0000000000000058
    vertex 2.000193652181602 17.771133254183574 0.0
    vertex 2.000193652181602 17.771133254183574 3.0000000000000058
  endloop
endfacet
facet normal -1.0 4.274770327843889e-15 2.7195100371261802e-43
  outer loop
    vertex 2.000193652181602 17.771133254183574 0.0
    vertex 2.000193652181963 102.20975383106729 3.0000000000000058
    vertex 2.000193652181963 102.20975383106729 0.0
  endloop
endfacet
facet normal -7.1045677413379955e-15 -1.0 0.0
  outer loop
    vertex 18.98914897996966 1.4889423027852898e-12 3.0000000000000058
    vertex 6.287612345097892 1.5791812302268227e-12 0.0
    vertex 18.98914897996966 1.4889423027852898e-12 0.0
  endloop
endfacet
facet normal -7.1045677413379955e-15 -1.0 0.0
  outer loop
    vertex 6.287612345097892 1.5791812302268227e-12 0.0
    vertex 18.98914897996966 1.4889423027852898e-12 3.0000000000000058
    vertex 6.287612345097892 1.5791812302268227e-12 3.0000000000000058
  endloop
endfacet
facet normal 1.0 -2.3896228310803025e-13 0.0
  outer loop
    vertex 117.99980634782052 5.021220276729856 0.0
    vertex 117.9998063478198 2.000193652181331 3.0000000000000058
    vertex 117.9998063478198 2.000193652181331 0.0
  endloop
endfacet
facet normal 1.0 -2.3896228310803025e-13 0.0
  outer loop
    vertex 117.9998063478198 2.000193652181331 3.0000000000000058
    vertex 117.99980634782052 5.021220276729856 0.0
    vertex 117.99980634782052 5.021220276729856 3.0000000000000058
  endloop
endfacet
facet normal -2.739162426077132e-13 -1.0 0.0
  outer loop
    vertex 117.9998063478198 2.000193652181331 3.0000000000000058
    vertex 113.38764836786844 2.0001936521825945 0.0
    vertex 117.9998063478198 2.000193652181331 0.0
  endloop
endfacet
facet normal -2.739162426077132e-13 -1.0 0.0
  outer loop
    vertex 113.38764836786844 2.0001936521825945 0.0
    vertex 117.9998063478198 2.000193652181331 3.0000000000000058
    vertex 113.38764836786844 2.0001936521825945 3.0000000000000058
  endloop
endfacet
facet normal -3.609207632197348e-13 1.0 -1.039514335488691e-32
  outer loop
    vertex 117.99980634782017 114.95966680852074 3.0000000000000058
    vertex 120.00000000000068 114.95966680852146 0.0
    vertex 117.99980634782017 114.95966680852074 0.0
  endloop
endfacet
facet normal -3.609207632197348e-13 1.0 -1.039514335488691e-32
  outer loop
    vertex 120.00000000000068 114.95966680852146 0.0
    vertex 117.99980634782017 114.95966680852074 3.0000000000000058
    vertex 120.00000000000068 114.95966680852146 3.0000000000000058
  endloop
endfacet
facet normal 0.0 1.0 0.0
  outer loop
    vertex 3.6095570976613087e-13 17.771133254183574 3.0000000000000058
    vertex 2.000193652181602 17.771133254183574 0.0
    vertex 3.6095570976613087e-13 17.771133254183574 0.0
  endloop
endfacet
facet normal 0.0 1.0 0.0
  outer loop
    vertex 2.000193652181602 17.771133254183574 0.0
    vertex 3.6095570976613087e-13 17.771133254183574 3.0000000000000058
    vertex 2.000193652181602 17.771133254183574 3.0000000000000058
  endloop
endfacet
facet normal -1.0 1.804732929753622e-13 -1.4450682086400016e-32
  outer loop
    vertex 6.287432089524227 119.99999999999685 3.0000000000000058
    vertex 6.2874320895238665 117.9999494450629 0.0
    vertex 6.2874320895238665 117.9999494450629 3.0000000000000058
  endloop
endfacet
facet normal -1.0 1.804732929753622e-13 -1.4450682086400016e-32
  outer loop
    vertex 6.2874320895238665 117.9999494450629 0.0
    vertex 6.287432089524227 119.99999999999685 3.0000000000000058
    vertex 6.287432089524227 119.99999999999685 0.0
  endloop
endfacet
facet normal 1.0 1.7713193172778334e-13 1.4450682086396297e-32
  outer loop
    vertex 18.98914897997002 119.99999999999739 0.0
    vertex 18.989148979970384 117.96222111820408 3.0000000000000058
    vertex 18.989148979970384 117.96222111820408 0.0
  endloop
endfacet
facet normal 1.0 1.7713193172778334e-13 1.4450682086396297e-32
  outer loop
    vertex 18.989148979970384 117.96222111820408 3.0000000000000058
    vertex 18.98914897997002 119.99999999999739 0.0
    vertex 18.98914897997002 119.99999999999739 3.0000000000000058
  endloop
endfacet
facet normal 0.0 0.0 1.0
  outer loop
    vertex 18.98914897996966 1.4889423027852898e-12 3.0000000000000058
    vertex 6.287612345098253 2.0001936521833614 3.0000000000000058
    vertex 6.287612345097892 1.5791812302268227e-12 3.0000000000000058
  endloop
endfacet
facet normal 0.0 0.0 1.0
  outer loop
    vertex 6.287612345098253 2.0001936521833614 3.0000000000000058
    vertex 2.000193652181963 5.021220276730533 3.0000000000000058
    vertex 2.000193652181241 2.000193652183001 3.0000000000000058
  endloop
endfacet
facet normal 0.0 0.0 1.0
  outer loop
    vertex 2.000193652181963 5.021220276730533 3.0000000000000058
    vertex 6.287612345098253 2.0001936521833614 3.0000000000000058
    vertex 2.000193652181963 102.20975383106729 3.0000000000000058
  endloop
endfacet
facet normal 0.0 0.0 1.0
  outer loop
    vertex 2.000193652181963 102.20975383106729 3.0000000000000058
    vertex 6.287612345098253 2.0001936521833614 3.0000000000000058
    vertex 6.2874320895238665 117.9999494450629 3.0000000000000058
  endloop
endfacet
facet normal 0.0 0.0 1.0
  outer loop
    vertex 6.2874320895238665 117.9999494450629 3.0000000000000058
    vertex 6.287612345098253 2.0001936521833614 3.0000000000000058
    vertex 6.287432089524227 119.99999999999685 3.0000000000000058
  endloop
endfacet
facet normal 0.0 0.0 1.0
  outer loop
    vertex 6.287432089524227 119.99999999999685 3.0000000000000058
    vertex 6.287612345098253 2.0001936521833614 3.0000000000000058
    vertex 18.98914897997002 119.99999999999739 3.0000000000000058
  endloop
endfacet
facet normal 0.0 0.0 1.0
  outer loop
    vertex 18.98914897997002 119.99999999999739 3.0000000000000058
    vertex 6.287612345098253 2.0001936521833614 3.0000000000000058
    vertex 18.98914897996966 1.4889423027852898e-12 3.0000000000000058
  endloop
endfacet
facet normal 0.0 0.0 1.0
  outer loop
    vertex 18.98914897997002 119.99999999999739 3.0000000000000058
    vertex 18.98914897996966 1.4889423027852898e-12 3.0000000000000058
    vertex 18.989148979970743 2.0001936521829102 3.0000000000000058
  endloop
endfacet
facet normal 0.0 0.0 1.0
  outer loop
    vertex 18.98914897997002 119.99999999999739 3.0000000000000058
    vertex 18.989148979970743 2.0001936521829102 3.0000000000000058
    vertex 18.989148979970384 117.96222111820408 3.0000000000000058
  endloop
endfacet
facet normal 0.0 0.0 1.0
  outer loop
    vertex 18.989148979970384 117.96222111820408 3.0000000000000058
    vertex 18.989148979970743 2.0001936521829102 3.0000000000000058
    vertex 100.68611173299558 117.96222111820313 3.0000000000000058
  endloop
endfacet
facet normal 0.0 0.0 1.0
  outer loop
    vertex 100.68611173299558 117.96222111820313 3.0000000000000058
    vertex 18.989148979970743 2.0001936521829102 3.0000000000000058
    vertex 100.68611173299668 2.000193652181512 3.0000000000000058
  endloop
endfacet
facet normal 0.0 0.0 1.0
  outer loop
    vertex 113.38764836786916 0.0 3.0000000000000058
    vertex 100.68611173299668 2.000193652181512 3.0000000000000058
    vertex 100.68611173299523 2.255973186038318e-12 3.0000000000000058
  endloop
endfacet
facet normal 0.0 0.0 1.0
  outer loop
    vertex 100.68611173299668 2.000193652181512 3.0000000000000058
    vertex 113.38764836786916 0.0 3.0000000000000058
    vertex 113.38764836786844 2.0001936521825945 3.0000000000000058
  endloop
endfacet
facet normal 0.0 0.0 1.0
  outer loop
    vertex 117.99980634782052 5.021220276729856 3.0000000000000058
    vertex 117.9998063478198 17.77113325418389 3.0000000000000058
    vertex 117.9998063478198 2.000193652181331 3.0000000000000058
  endloop
endfacet
facet normal 0.0 0.0 1.0
  outer loop
    vertex 117.9998063478198 17.77113325418389 3.0000000000000058
    vertex 117.99980634782052 5.021220276729856 3.0000000000000058
    vertex 120.00000000000033 17.771133254184072 3.0000000000000058
  endloop
endfacet
facet normal 0.0 0.0 1.0
  outer loop
    vertex 120.00000000000033 17.771133254184072 3.0000000000000058
    vertex 117.99980634782052 5.021220276729856 3.0000000000000058
    vertex 120.00000000000068 5.021220276729135 3.0000000000000058
  endloop
endfacet
facet normal 0.0 0.0 1.0
  outer loop
    vertex 117.99980634782052 102.2097538310667 3.0000000000000058
    vertex 117.99980634782017 114.95966680852074 3.0000000000000058
    vertex 117.9998063478198 17.77113325418389 3.0000000000000058
  endloop
endfacet
facet normal 0.0 0.0 1.0
  outer loop
    vertex 117.99980634782017 114.95966680852074 3.0000000000000058
    vertex 117.99980634782052 102.2097538310667 3.0000000000000058
    vertex 120.00000000000068 114.95966680852146 3.0000000000000058
  endloop
endfacet
facet normal 0.0 0.0 1.0
  outer loop
    vertex 120.00000000000068 114.95966680852146 3.0000000000000058
    vertex 117.99980634782052 102.2097538310667 3.0000000000000058
    vertex 120.00000000000033 102.20975383106706 3.0000000000000058
  endloop
endfacet
facet normal 0.0 0.0 1.0
  outer loop
    vertex 117.9998063478198 2.000193652181331 3.0000000000000058
    vertex 113.38764836786844 117.96222111820332 3.0000000000000058
    vertex 113.38764836786844 2.0001936521825945 3.0000000000000058
  endloop
endfacet
facet normal 0.0 0.0 1.0
  outer loop
    vertex 113.38764836786844 117.96222111820332 3.0000000000000058
    vertex 117.9998063478198 2.000193652181331 3.0000000000000058
    vertex 117.9998063478198 17.77113325418389 3.0000000000000058
  endloop
endfacet
facet normal 0.0 0.0 1.0
  outer loop
    vertex 113.38764836786844 117.96222111820332 3.0000000000000058
    vertex 117.9998063478198 17.77113325418389 3.0000000000000058
    vertex 117.99980634782017 114.95966680852074 3.0000000000000058
  endloop
endfacet
facet normal 0.0 0.0 1.0
  outer loop
    vertex 113.38764836786844 117.96222111820332 3.0000000000000058
    vertex 117.99980634782017 114.95966680852074 3.0000000000000058
    vertex 117.99980634782052 117.96222111820367 3.0000000000000058
  endloop
endfacet
facet normal 0.0 0.0 1.0
  outer loop
    vertex 100.68611173299558 117.96222111820313 3.0000000000000058
    vertex 113.38764836786989 119.96306954037873 3.0000000000000058
    vertex 100.68611173299523 119.96306954037982 3.0000000000000058
  endloop
endfacet
facet normal 0.0 0.0 1.0
  outer loop
    vertex 113.38764836786989 119.96306954037873 3.0000000000000058
    vertex 100.68611173299558 117.96222111820313 3.0000000000000058
    vertex 100.68611173299668 2.000193652181512 3.0000000000000058
  endloop
endfacet
facet normal 0.0 0.0 1.0
  outer loop
    vertex 113.38764836786989 119.96306954037873 3.0000000000000058
    vertex 100.68611173299668 2.000193652181512 3.0000000000000058
    vertex 113.38764836786844 117.96222111820332 3.0000000000000058
  endloop
endfacet
facet normal 0.0 0.0 1.0
  outer loop
    vertex 113.38764836786844 117.96222111820332 3.0000000000000058
    vertex 100.68611173299668 2.000193652181512 3.0000000000000058
    vertex 113.38764836786844 2.0001936521825945 3.0000000000000058
  endloop
endfacet
facet normal 0.0 0.0 1.0
  outer loop
    vertex 2.000193652181963 102.20975383106729 3.0000000000000058
    vertex 1.0828671292983925e-12 114.95966680852169 3.0000000000000058
    vertex 0.0 102.20975383106855 3.0000000000000058
  endloop
endfacet
facet normal 0.0 0.0 1.0
  outer loop
    vertex 1.0828671292983925e-12 114.95966680852169 3.0000000000000058
    vertex 2.000193652181963 102.20975383106729 3.0000000000000058
    vertex 2.00019365218088 114.95966680852042 3.0000000000000058
  endloop
endfacet
facet normal 0.0 0.0 1.0
  outer loop
    vertex 2.00019365218088 114.95966680852042 3.0000000000000058
    vertex 2.000193652181963 102.20975383106729 3.0000000000000058
    vertex 2.000193652181602 117.99994944506271 3.0000000000000058
  endloop
endfacet
facet normal 0.0 0.0 1.0
  outer loop
    vertex 2.000193652181602 117.99994944506271 3.0000000000000058
    vertex 2.000193652181963 102.20975383106729 3.0000000000000058
    vertex 6.2874320895238665 117.9999494450629 3.0000000000000058
  endloop
endfacet
facet normal 0.0 0.0 1.0
  outer loop
    vertex 7.219114195322617e-13 5.021220276730082 3.0000000000000058
    vertex 2.000193652181602 17.771133254183574 3.0000000000000058
    vertex 3.6095570976613087e-13 17.771133254183574 3.0000000000000058
  endloop
endfacet
facet normal 0.0 0.0 1.0
  outer loop
    vertex 2.000193652181602 17.771133254183574 3.0000000000000058
    vertex 7.219114195322617e-13 5.021220276730082 3.0000000000000058
    vertex 2.000193652181963 5.021220276730533 3.0000000000000058
  endloop
endfacet
facet normal 0.0 0.0 1.0
  outer loop
    vertex 2.000193652181602 17.771133254183574 3.0000000000000058
    vertex 2.000193652181963 5.021220276730533 3.0000000000000058
    vertex 2.000193652181963 102.20975383106729 3.0000000000000058
  endloop
endfacet
facet normal 1.0 -1.2021621344269608e-13 1.445068208639939e-32
  outer loop
    vertex 117.99980634782052 117.96222111820367 0.0
    vertex 117.99980634782017 114.95966680852074 3.0000000000000058
    vertex 117.99980634782017 114.95966680852074 0.0
  endloop
endfacet
facet normal 1.0 -1.2021621344269608e-13 1.445068208639939e-32
  outer loop
    vertex 117.99980634782017 114.95966680852074 3.0000000000000058
    vertex 117.99980634782052 117.96222111820367 0.0
    vertex 117.99980634782052 117.96222111820367 3.0000000000000058
  endloop
endfacet
facet normal 2.2557547701225282e-13 -1.0 0.0
  outer loop
    vertex 2.000193652181963 5.021220276730533 3.0000000000000058
    vertex 7.219114195322617e-13 5.021220276730082 0.0
    vertex 2.000193652181963 5.021220276730533 0.0
  endloop
endfacet
facet normal 2.2557547701225282e-13 -1.0 0.0
  outer loop
    vertex 7.219114195322617e-13 5.021220276730082 0.0
    vertex 2.000193652181963 5.021220276730533 3.0000000000000058
    vertex 7.219114195322617e-13 5.021220276730082 3.0000000000000058
  endloop
endfacet
endsolid Piece5
